<svg xmlns:mydata="http://www.w3.org/2000/svg" mydata:contrastcolor="ffd02f" mydata:template="Contrast"
    mydata:presentation="2.5" mydata:layouttype="undefined" mydata:specialfontid="undefined" mydata:id1="749"
    mydata:id2="749" mydata:companyname="Best Essay Writing Services" mydata:companytagline="" version="1.1"
    xmlns="http://www.w3.org/2000/svg" xmlns:xlink="http://www.w3.org/1999/xlink" viewBox="108.77 115 322.75 274.6">
    <g fill="#ffffff" fill-rule="none" stroke="none" stroke-width="1" stroke-linecap="butt" stroke-linejoin="miter"
        stroke-miterlimit="10" stroke-dasharray="" stroke-dashoffset="0" font-family="none" font-weight="none"
        font-size="none" text-anchor="none" style="mix-blend-mode: normal">
        <g
            data-paper-data="{&quot;isGlobalGroup&quot;:true,&quot;bounds&quot;:{&quot;x&quot;:64.99999999999999,&quot;y&quot;:122.96261210142447,&quot;width&quot;:419.99999999999994,&quot;height&quot;:224.07477579715103}}">
            <g data-paper-data="{&quot;fillRule&quot;:&quot;evenodd&quot;,&quot;initialText&quot;:&quot;B&quot;,&quot;isIcon&quot;:&quot;true&quot;,&quot;iconType&quot;:&quot;initial&quot;,&quot;iconStyle&quot;:&quot;standalone&quot;,&quot;rawInitialId&quot;:&quot;788&quot;,&quot;selectedEffects&quot;:{&quot;container&quot;:&quot;&quot;,&quot;transformation&quot;:&quot;&quot;,&quot;pattern&quot;:&quot;&quot;},&quot;monogramSpecial&quot;:&quot;wreath&quot;,&quot;bounds&quot;:{&quot;x&quot;:145.1322732784123,&quot;y&quot;:122.96261210142447,&quot;width&quot;:259.7195480145811,&quot;height&quot;:139.83261301865073},&quot;suitableAsStandaloneIcon&quot;:false}"
                fill-rule="evenodd">
                <path
                    d="M399.23816,182.31827c1.04026,-2.08065 1.86803,-4.2148 2.42769,-6.24232c0.50778,-2.0274 0.88089,-4.00143 1.01432,-5.84228c0.13343,-1.81404 0.10625,-3.5212 0.02594,-5.01513c-0.10625,-1.49393 -0.34717,-2.80105 -0.55967,-3.9215c-1.70742,9.95033 -5.41505,18.8872 -10.6176,25.87648l-0.03089,-0.00247c-3.05407,4.04739 -6.50226,7.43553 -10.3458,10.11291c0.9056,-0.29355 2.00146,-0.66703 3.17515,-1.17382c1.14651,-0.50679 2.39928,-1.14701 3.70764,-1.92078c2.64143,-1.57386 5.36193,-3.78794 7.89587,-6.82917l2.58707,0.15999c-1.76054,2.24089 -3.51985,3.94831 -5.12101,5.25543c-1.62711,1.30712 -2.98859,2.16071 -3.86948,2.69431c-2.02617,1.28044 -4.13387,2.18752 -6.0019,2.85442c-1.86679,0.66691 -3.54703,1.09376 -4.98758,1.38718c-0.88089,4.16167 -2.10771,8.42984 -3.70887,12.72481c1.04026,-1.41387 2.13489,-2.96117 3.62857,-4.48166c1.254,-1.41399 2.61425,-2.66774 3.92137,-3.81475c1.27994,-1.14725 2.61425,-2.18752 3.86825,-3.0946c2.45487,-1.8406 4.72195,-3.17453 6.24281,-4.05493c0.07907,0.64034 0.15938,1.60067 0.18532,2.82774c0,1.22719 -0.05313,2.69443 -0.40029,4.32166c-0.15938,0.80034 -0.37188,1.65392 -0.61279,2.53431c-0.26686,0.88039 -0.63997,1.76066 -1.06744,2.66762c-0.79935,1.84085 -2.02617,3.65476 -3.54703,5.38886c-1.46773,1.62723 -3.09484,2.90767 -4.66883,3.9215c-1.62711,0.98689 -3.22827,1.70729 -4.72195,2.21408c-3.04048,0.98689 -5.62879,1.17394 -7.14965,1.19989c-0.66592,1.20124 -1.30589,2.42843 -2.00022,3.62832c-0.72028,1.17394 -1.41337,2.40113 -2.16083,3.57495c1.8149,-1.68036 3.86701,-3.25422 6.18969,-4.56196c1.65305,-0.88039 3.9745,-1.78686 6.74812,-2.7478c1.36148,-0.47986 2.80204,-0.98664 4.29448,-1.52024c1.49491,-0.50679 3.01577,-1.06707 4.48351,-1.62723c1.49244,-0.56028 2.96018,-1.12044 4.32043,-1.62723c1.36025,-0.5336 2.64143,-1.06707 3.78918,-1.52061c2.29303,-0.90708 4.02639,-1.62736 4.72195,-1.81404c0,0.08006 -0.05436,0.29342 -0.13467,0.56016l0.18779,-0.13343l-0.32122,0.5336c-0.2125,0.61366 -0.55967,1.52061 -0.98714,2.61437c-0.42747,1.09364 -0.98714,2.3742 -1.70742,3.76138c-0.6931,1.38755 -1.4665,2.93423 -2.45487,4.48215c-0.93278,1.57386 -1.97304,3.17379 -3.17268,4.72171c-2.2955,3.14772 -5.06912,6.10852 -7.95023,8.48234c-1.44055,1.17394 -2.93547,2.18814 -4.37479,3.0154c-1.46773,0.82715 -2.96141,1.44006 -4.34761,1.8401c-2.85516,0.7739 -6.48373,0.42722 -9.76513,-0.37274c-3.30734,-0.8012 -6.26876,-2.00109 -7.92181,-2.7478c-3.09484,3.70751 -6.45655,7.22872 -9.97763,10.59042c-0.6931,0.6931 -1.41461,1.36025 -2.16083,2.02617c2.96141,-1.49244 6.48249,-2.8008 10.75103,-3.73482c5.41505,-1.14651 10.59042,-1.43932 15.04552,-1.33307c4.42791,0.08031 8.13555,0.5609 10.34951,0.90807l0.58685,-0.08031l-0.39906,0.31999c-3.2814,6.80248 -7.8168,10.67073 -10.59042,12.5647c-0.46083,0.31875 -0.92289,0.6202 -1.38619,0.9056c-1.23382,-0.12684 -2.46805,-0.25121 -3.70269,-0.37311c6.08838,-2.92435 10.09376,-7.38191 12.18417,-10.37669c-7.35844,4.9604 -14.87626,7.96382 -22.17416,9.44514c-1.22064,-0.10707 -2.44087,-0.21168 -3.66069,-0.31381c8.56549,-1.233 17.52633,-4.4798 26.18201,-10.57065c-0.85371,0.13219 -1.78772,0.26563 -2.74768,0.45218c-0.98714,0.16061 -2.0274,0.31999 -3.12079,0.53372c-2.16083,0.42624 -4.56258,0.85371 -7.12247,1.41337c-5.12348,1.09462 -10.91164,2.53518 -17.20635,4.42915l-0.69433,-0.7734c10.7498,-3.2814 20.19371,-5.20255 27.12962,-6.40219c-5.28162,-0.21497 -12.8575,-0.02718 -20.78055,2.08053c-2.96141,0.79935 -5.52254,1.76054 -7.76244,2.8008l-2.53518,-2.77486l1.62711,-1.49368c-1.46773,-3.36047 -3.25422,-8.53695 -4.02886,-14.32474c-0.71904,-5.20218 -0.425,-9.20448 0.13467,-12.21852c0.26563,-1.52061 0.61403,-2.77424 0.98714,-3.78794c0.31999,-1.01382 0.66715,-1.81404 0.95996,-2.34763c2.26832,2.74768 5.52254,7.33546 6.82966,13.36491c1.65305,7.57601 -0.58685,13.60533 -2.64143,17.12715c3.38765,-3.30883 6.58874,-6.80335 9.55016,-10.43166c-1.97428,-4.64115 -4.72195,-12.37691 -6.13656,-20.35382c-1.14651,-6.61593 -0.9056,-11.25757 -0.10625,-14.85896c0.37435,-1.81404 0.93401,-3.30796 1.44179,-4.56171c0.55967,-1.22719 1.04026,-2.21408 1.41337,-2.85442c3.46796,2.40088 5.8697,4.90851 7.65619,7.28271c1.68023,2.34763 2.77362,4.53515 3.36047,6.18907c1.60117,4.26829 1.70742,8.40315 1.14775,12.05791c-0.5609,3.68083 -1.89397,6.85598 -3.12202,9.57647c4.64288,-6.85524 8.2974,-14.08494 10.72385,-21.3144c-2.85393,-2.40076 -7.81556,-7.06922 -11.55038,-12.69801c-3.10102,-4.66661 -4.17464,-8.46344 -4.39703,-11.57398l-0.05683,-0.00383c-0.16061,-1.44043 -0.05436,-2.66762 0.05313,-3.68132c0.08031,-1.04051 0.26563,-1.81404 0.37188,-2.29426c1.30836,0.50691 3.01577,1.25388 4.88257,2.34763c1.84085,1.06707 3.76076,2.45425 5.68191,4.29498c1.22682,1.22707 2.42893,2.66774 3.52232,4.32154c2.77486,4.42841 3.57421,8.96344 3.46796,12.56482c1.4072,-5.66153 2.18183,-11.16393 2.50429,-16.29655l-0.04942,-0.00297c0,-0.32011 0.02594,-0.64022 0.02594,-0.93377c0.05313,-1.20038 0.08031,-2.3742 0.13343,-3.5212c-1.70742,-1.17382 -3.78794,-2.69431 -5.89565,-4.56171c-2.18801,-1.86741 -4.32166,-4.02824 -6.29594,-6.58924c-0.7734,-1.06707 -1.49491,-2.10746 -2.13489,-3.12116c-0.63997,-1.0137 -1.09339,-2.0274 -1.5468,-3.01442c-0.93278,-1.97415 -1.38619,-3.84144 -1.81367,-5.6021c-0.66715,-3.46808 -0.63997,-6.40244 -0.4806,-7.89636c1.254,0.40017 2.96141,0.98701 4.85538,1.89409c0.61279,0.29342 1.38743,0.66691 2.29426,1.14701c0.85371,0.48023 1.8149,1.06707 2.82798,1.78747c1.01432,0.72015 2.08176,1.57386 3.12202,2.56088c1.01185,1.0137 1.99899,2.16096 2.90705,3.46808c0.29281,0.42673 0.55967,0.8269 0.79935,1.25375c-0.07907,-0.74696 -0.23968,-1.46724 -0.34593,-2.13415c-0.24092,-1.41387 -0.42747,-2.69443 -0.61279,-3.81487c-0.21497,-1.12032 -0.40153,-2.05409 -0.53372,-2.82761c-0.64121,-0.42685 -1.41461,-1.0137 -2.2955,-1.76066c-0.9056,-0.74696 -1.89274,-1.62723 -2.85393,-2.66774c-0.4806,-0.5336 -0.96119,-1.09364 -1.41461,-1.68061c-0.4806,-0.58685 -0.93278,-1.22719 -1.38619,-1.92078c-0.88089,-1.3605 -1.60117,-2.90767 -2.24114,-4.61509c-1.4665,-4.26817 -1.38743,-8.37644 -0.80058,-11.76435c0.53372,-3.36129 1.62711,-6.00237 2.10771,-7.09604c0.66715,0.64021 1.60117,1.5739 2.7205,2.7477c0.72028,0.77358 2.40175,2.50759 4.02886,4.61507c0.82653,1.04044 1.68023,2.16086 2.45364,3.28129c0.72151,1.1203 1.38743,2.24074 1.84208,3.25457c0.26563,0.58685 0.58685,1.36037 0.87965,2.34739c0.23968,0.98714 0.45342,2.21433 0.53249,3.6282c0.08031,1.41374 0,3.0411 -0.39906,4.88182c-0.37311,1.8406 -0.95996,3.84144 -2.00022,6.02883l0.07907,0.32011c0.18656,0.77377 0.45342,1.73398 0.72028,2.85442c0.26686,1.12044 0.50654,2.45438 0.82776,3.89493c0.31875,1.46712 0.55967,3.09447 0.82653,4.88182c0.29404,1.78735 0.47936,3.73469 0.69433,5.7889l0.02594,0.21337c0.18656,0.96045 0.21374,1.92066 0.29281,2.85442c0.13467,1.65392 0.16061,3.14772 0.05313,4.50834c0,1.01382 0.02718,2.0809 0.02718,3.14785c-0.02718,1.06707 -0.08031,2.16083 -0.10625,3.25459l-0.02718,0.37348c1.06744,-3.12116 2.64143,-6.58924 4.90851,-10.32381c0.72151,-1.17382 1.49368,-2.32107 2.26832,-3.41471c0.7734,-1.09376 1.5468,-2.13415 2.34739,-3.12116c0.79935,-0.98701 1.62711,-1.92078 2.42646,-2.82774c0.80182,-0.88039 1.57398,-1.73398 2.3758,-2.50763c1.57398,-1.57398 3.06766,-2.93448 4.42791,-4.05493c1.3343,-1.12044 2.508,-2.02728 3.4136,-2.6675l0.34717,-0.48023l-0.05313,0.48023c0.6931,1.68048 1.09339,3.36109 1.44055,4.96176c0.34593,1.57386 0.5609,3.06779 0.61403,4.48166c0.08031,1.41399 0.08031,2.69443 0.02594,3.84144c-0.05313,1.14713 -0.21374,2.18752 -0.34717,3.04123c-0.85247,5.89552 -3.4136,10.75079 -6.05502,14.24543l-2.58707,-0.16012c1.25276,-1.41399 2.40051,-3.0946 3.4136,-5.01538zM340.48677,260.20322c2.86381,-1.02297 5.62261,-1.92362 8.2801,-2.73656l-0.69433,-0.7734c-2.82798,0.88089 -5.7894,1.83961 -8.82988,2.96018c1.84085,-1.41337 4.32166,-3.0133 7.44369,-4.48104l-2.53518,-2.77362c-2.82181,2.5846 -5.72886,5.06912 -8.68163,7.46346c1.672,0.10872 3.34441,0.22238 5.01723,0.34099zM333.76953,259.75227c1.43561,-2.35974 2.68343,-5.2285 3.39259,-8.63468c0.40029,-1.97428 0.58685,-3.89543 0.58685,-5.70922l-1.57398,-1.73361c0.10625,2.05433 0,4.26891 -0.42747,6.6163c-0.71904,3.83118 -2.14477,6.92973 -3.71752,9.35372c0.58149,0.03542 1.16134,0.07125 1.73954,0.10749zM330.84518,259.57189c2.53394,-5.63867 3.89049,-11.65416 4.31549,-16.99051l-0.79935,-0.88052c-0.37929,5.5769 -1.80872,11.91731 -4.54405,17.80926c0.34428,0.02059 0.68692,0.04118 1.02791,0.06177zM326.82992,259.33839c0.75858,-7.28555 2.68343,-13.58865 5.71651,-19.61143l-0.66715,-0.74795c-3.14426,6.23948 -5.17908,12.71926 -5.92283,20.3112c0.29239,0.01647 0.58355,0.03253 0.87348,0.04818zM325.74394,259.27909c-0.21374,-2.85516 -0.16555,-6.20451 0.53372,-9.65517c1.06744,-5.30892 3.20233,-8.83075 5.14819,-11.12402l-1.12057,-1.22719c-2.26708,2.66725 -4.61447,6.61506 -5.68068,12.59089c-0.57573,3.26905 -0.62391,6.47138 -0.42871,9.33148c0.51725,0.028 1.03326,0.05601 1.54804,0.08401zM321.04423,259.03323c-0.09266,-1.73954 -0.33605,-3.17268 -0.52878,-4.12646c-1.34419,0.76722 -3.07631,1.97798 -4.74666,3.87937c0.8327,0.03706 1.66541,0.07495 2.49811,0.11366c0.12849,-0.12725 0.25574,-0.24956 0.38052,-0.36693c-0.05683,0.12355 -0.1149,0.24833 -0.1742,0.37682c0.34099,0.01565 0.68157,0.03171 1.02173,0.04818c0.0939,-0.20138 0.18532,-0.39658 0.27427,-0.58438c0.01235,0.1915 0.02347,0.39164 0.03212,0.5992c0.41265,0.01977 0.82694,0.03995 1.24288,0.06054zM234.16014,258.78984c-1.67863,-1.91868 -3.42101,-3.13809 -4.77236,-3.91025c-0.20435,0.95996 -0.45156,2.40422 -0.54274,4.15982c0.47491,-0.02389 0.94769,-0.04736 1.41832,-0.07042c0.0084,-0.20509 0.01903,-0.404 0.0315,-0.5955c0.08772,0.18656 0.17877,0.38052 0.27254,0.58067c0.33193,-0.01565 0.66357,-0.0313 0.99492,-0.04695c-0.05893,-0.12725 -0.11688,-0.25204 -0.17358,-0.37435c0.1275,0.11737 0.25648,0.23845 0.38658,0.36446c0.79449,-0.03706 1.58943,-0.07289 2.38482,-0.10749zM225.82642,259.19384c0.18915,-2.86258 0.10254,-6.07356 -0.54682,-9.35743c-1.0588,-5.90195 -3.37863,-9.86137 -5.62953,-12.52875l0.08068,-0.08821c-2.08065,-2.42843 -4.10817,-3.76212 -4.96188,-4.32179c-1.0588,2.64662 -2.45932,7.02808 -2.4545,12.30809l-0.15975,0.17667c0,1.83973 0.1868,3.73494 0.58685,5.70798c0.69483,3.42224 1.95525,6.30212 3.40556,8.66804c0.57968,-0.03706 1.16163,-0.07372 1.74584,-0.10996c-1.58041,-2.42769 -3.01491,-5.53613 -3.73741,-9.38461c-0.41783,-2.27079 -0.55435,-4.46597 -0.43501,-6.48398l0.16827,-0.18569c0.13331,-2.02715 0.42685,-3.89444 0.8269,-5.52167c0,1.39089 0.04967,2.83095 0.17309,4.32043l-0.14628,0.1611c0.42599,5.34759 1.77067,11.37544 4.31944,17.02399c0.34198,-0.02059 0.68634,-0.04118 1.0331,-0.06177c-2.7142,-5.83758 -4.144,-12.13476 -4.54083,-17.67904l0.14863,-0.1637c-0.16012,-1.97378 -0.1868,-3.86713 -0.13343,-5.62805c0.67494,1.16739 1.29934,2.36085 1.8978,3.53084l-0.11045,0.12342c3.03727,6.0313 4.96299,12.34565 5.71984,19.64479c0.28968,-0.01647 0.57976,-0.03295 0.87026,-0.04942c-0.75969,-7.566 -2.77819,-14.02638 -5.8744,-20.24473l0.11132,-0.12466c-0.34692,-0.71941 -0.74696,-1.44006 -1.14725,-2.16083c0.46503,0.4402 1.00481,0.97911 1.52284,1.61809l-0.08228,0.08957c1.92078,2.32058 4.08161,5.81645 5.14868,11.12538c0.70224,3.43954 0.74721,6.81854 0.53137,9.68606c0.5586,-0.03047 1.11505,-0.06054 1.66936,-0.09019zM214.47137,259.86593c-2.96549,-2.40422 -5.88613,-4.89863 -8.71918,-7.49434l-0.01643,0.01853l-1.53087,-1.40596c1.46736,-3.36171 3.25459,-8.53658 4.02824,-14.32573c0.72028,-5.20218 0.42685,-9.20312 -0.13331,-12.21716c-0.26686,-1.52061 -0.61353,-2.77474 -0.98701,-3.78856c-0.34692,-1.04026 -0.69359,-1.81404 -0.96045,-2.34751c-2.26758,2.7478 -5.52204,7.33596 -6.82929,13.36528c-1.62723,7.54883 0.58685,13.60546 2.64106,17.12567c-3.3879,-3.33453 -6.58912,-6.80174 -9.55028,-10.43006c1.97415,-4.64115 4.72183,-12.40421 6.1357,-20.35432c1.14701,-6.6158 0.90696,-11.25757 0.10662,-14.85896c-0.37348,-1.78735 -0.93364,-3.30784 -1.44055,-4.56171c-0.56016,-1.22707 -1.04026,-2.2142 -1.41387,-2.85442c-3.46796,2.40088 -5.86871,4.90863 -7.65619,7.28283c-1.68061,2.32082 -2.77436,4.5349 -3.36121,6.18895c-1.62723,4.26817 -1.73398,8.40328 -1.14701,12.05791c0.53335,3.68132 1.89397,6.82917 3.12104,9.57697c-4.64177,-6.85659 -8.29641,-14.11212 -10.72398,-21.31477c2.8543,-2.40101 7.84287,-7.06934 11.551,-12.69813c3.12116,-4.69514 4.18823,-8.5099 4.4016,-11.63106l-1.65392,0.10674c-0.16012,2.69431 -1.12044,6.18895 -3.78807,10.45724c-1.04039,1.60067 -2.08077,3.06779 -3.25459,4.45509c-1.14701,1.38706 -2.24089,2.61425 -3.33453,3.70801c4.42828,-6.56243 7.52276,-12.2714 9.71028,-18.56709l-0.98714,0.05337c-2.45413,7.17609 -6.24232,13.60508 -11.71099,21.34133c-0.18668,0.16012 -0.3468,0.32023 -0.50679,0.45366c0.02656,-1.06707 0.18668,-2.13415 0.34667,-3.17453c0.13343,-1.04051 0.34692,-2.0809 0.64022,-3.0946c0.29355,-1.04026 0.58697,-2.0274 0.93377,-2.98785c0.37348,-0.9602 0.77365,-1.92066 1.2005,-2.82761c0.42685,-0.90708 0.90696,-1.81404 1.41374,-2.66774c0.50704,-0.85358 1.01382,-1.68061 1.5473,-2.48094c1.12044,-1.60055 2.29426,-3.06779 3.46808,-4.37491l-1.17382,0.08006c-1.04039,1.20038 -2.08077,2.50763 -3.0946,3.94818c-0.93364,1.41387 -1.86741,2.96104 -2.69431,4.5884c-1.57386,3.22778 -2.82774,6.88254 -3.28115,10.67073c-0.26686,-1.7341 -0.26686,-3.97487 0.13331,-6.42925c0.26674,-1.22707 0.61366,-2.53419 1.12044,-3.84144c0.53347,-1.30712 1.25388,-2.66762 2.10758,-4.00143c1.28031,-1.92078 2.80093,-3.52145 4.26817,-4.82858l-2.34763,0.13331c-1.25375,1.22719 -2.42757,2.66774 -3.5212,4.32179c-2.80105,4.4016 -3.5747,8.93663 -3.46808,12.5647c-1.44031,-5.70798 -2.18715,-11.22941 -2.50726,-16.35042l0.053,-0.00247c0,-0.32011 -0.02656,-0.61353 -0.02656,-0.93364c-0.05337,-1.20038 -0.08018,-2.3742 -0.13331,-3.52133c1.70717,-1.17369 3.78794,-2.69443 5.8954,-4.56184c2.18752,-1.86716 4.32166,-4.05468 6.29582,-6.58899c0.80021,-1.04051 1.52049,-2.10746 2.13402,-3.12116c0.61366,-1.04051 1.09388,-2.02752 1.5473,-3.01442c0.93364,-1.97415 1.41387,-3.86825 1.81404,-5.60222c0.66691,-3.46796 0.64022,-6.40244 0.48023,-7.89636c-1.25375,0.40029 -2.96117,0.98714 -4.85526,1.89409c-0.6401,0.29342 -1.41387,0.66691 -2.29414,1.14713c-0.85371,0.48023 -1.81404,1.06707 -2.82774,1.78735c-1.0137,0.72015 -2.08077,1.5473 -3.12116,2.561c-0.98701,0.98701 -1.97415,2.16071 -2.90779,3.46783c-0.29342,0.42685 -0.56028,0.82715 -0.80034,1.25388c0.10674,-0.74684 0.24005,-1.46724 0.3468,-2.13415c0.21337,-1.44055 0.40017,-2.69431 0.61366,-3.81475c0.21337,-1.09376 0.37348,-2.05409 0.53347,-2.82774c0.61353,-0.42685 1.41387,-1.0137 2.29426,-1.76066c0.90696,-0.74696 1.89409,-1.62736 2.85442,-2.66762c0.48023,-0.50691 0.96033,-1.06707 1.41387,-1.68073c0.4801,-0.61353 0.96033,-1.22707 1.38718,-1.92066c0.90696,-1.36062 1.60067,-2.90779 2.24089,-4.61509c1.46712,-4.29498 1.38706,-8.3765 0.80034,-11.76441c-0.5336,-3.36129 -1.62736,-6.00237 -2.10758,-7.09605c-0.66691,0.64021 -1.60067,1.57389 -2.72099,2.7477c-0.72028,0.77358 -2.40088,2.50759 -4.02812,4.61507c-0.82715,1.04031 -1.68073,2.16073 -2.45438,3.28117c-0.72028,1.14718 -1.36037,2.26763 -1.8406,3.25464c-0.26686,0.58685 -0.58697,1.3605 -0.88039,2.34751c-0.26686,1.0137 -0.48023,2.2142 -0.5336,3.62807c-0.07993,1.41387 0,3.0411 0.40029,4.88182c0.37336,1.84072 0.93364,3.84144 2.00072,6.02895l-0.08018,0.32011c-0.18668,0.77365 -0.42661,1.73398 -0.72015,2.85442c-0.26674,1.12044 -0.5336,2.42757 -0.82702,3.89469c-0.32011,1.46736 -0.56028,3.0946 -0.82702,4.88195c-0.11329,0.62317 -0.20645,1.26981 -0.2891,1.93734c0.09896,-0.94155 0.19953,-2.04111 0.26254,-3.27127c0.02879,-0.79539 0.07462,-1.53569 0.11811,-2.23459c0.07746,-1.24659 0.14653,-2.36098 0.09525,-3.42076c-0.08006,-1.65404 -0.24017,-3.17453 -0.80034,-4.82858c-1.09364,-3.22778 -2.93448,-5.49536 -6.53574,-10.29725c-1.33393,-1.81391 -2.50763,-3.30784 -3.36121,-4.34823c-0.45366,0.88039 -0.96045,1.92066 -1.44055,3.20122c-0.48023,1.28044 -0.96045,2.74768 -1.36058,4.37491c-0.05336,0.21337 -0.16007,0.64022 -0.29345,1.22719c-0.10671,0.58685 -0.2401,1.30725 -0.37347,2.10758c-0.2401,1.57386 -0.48019,3.3879 -0.34681,4.82845c0.18673,1.97403 0.90701,3.81475 1.97402,5.44198c1.12044,1.62723 2.53444,3.06779 4.02824,4.29498c2.96104,2.42757 6.29582,3.97487 7.84287,4.64165l0.00358,-0.03039c-0.07215,0.70323 -0.14121,1.42536 -0.21695,2.16466l-0.02656,0.21337c-0.16012,0.96033 -0.21349,1.92078 -0.29342,2.85442c-0.13343,1.62723 -0.16012,3.14785 -0.05337,4.50834c0,1.04039 -0.02669,2.08077 -0.02669,3.14797c0.02669,1.06707 0.05325,2.13415 0.10662,3.25447l0.02681,0.37348c-1.04051,-3.12116 -2.61437,-6.56243 -4.90863,-10.32393c-0.72028,-1.17382 -1.46724,-2.32082 -2.26745,-3.41458c-0.77365,-1.09376 -1.5473,-2.13415 -2.34763,-3.12116c-0.80034,-0.98701 -1.60067,-1.92066 -2.42757,-2.82774c-0.8003,-0.88039 -1.60058,-1.7341 -2.37421,-2.50763c-1.54725,-1.5473 -3.06782,-2.90779 -4.42833,-4.05493c-1.36052,-1.12032 -2.50761,-2.00072 -3.41462,-2.66762l-0.34681,-0.4801l0.05336,0.4801c-0.66691,1.68061 -1.09374,3.38802 -1.44054,4.96188c-0.32011,1.57386 -0.5602,3.06779 -0.61356,4.48178c-0.08003,1.41374 -0.08003,2.69431 -0.02668,3.84131c0.08003,1.14713 0.21342,2.18752 0.3468,3.04123c0.88033,5.92221 3.41463,10.75066 6.05558,14.2453l2.58765,-0.15999c-1.17372,-1.49405 -2.32082,-3.17453 -3.36122,-5.06863c-1.04039,-2.08077 -1.86736,-4.21492 -2.42758,-6.24232c-0.50686,-2.0274 -0.88034,-4.02824 -1.01373,-5.84228c-0.13338,-1.81404 -0.10671,-3.49464 -0.02667,-5.01525c0.13339,-1.4938 0.3468,-2.82761 0.56021,-3.9215c1.70732,9.95057 5.41537,18.8872 10.61744,25.87648l1.12032,-0.07993c-5.46873,-7.22946 -9.31018,-16.59294 -10.96414,-27.0503c4.05486,5.54873 9.81701,14.9657 16.1127,26.73019l1.04051,-0.05337c-5.36205,-10.05719 -10.35064,-18.46035 -14.27211,-24.22256c0.93367,0.90708 1.97407,1.94734 3.01447,3.09447c1.09375,1.17382 2.21417,2.45425 3.3346,3.84144c0.56028,0.69371 1.12044,1.41387 1.65392,2.16083c0.56016,0.74696 1.12044,1.52049 1.68061,2.32082c1.12044,1.60067 2.13415,3.30796 3.17453,5.122c1.46736,2.72099 2.66774,5.22862 3.49464,7.54944l3.48513,-0.15036l-3.59187,0.20373c0.64034,1.62736 1.12044,3.14797 1.49393,4.56171c0.42685,1.38731 0.69359,2.66774 0.90708,3.81487c-0.72028,-1.44068 -1.52061,-2.82774 -2.26758,-4.21492c-0.69359,-1.38718 -1.44055,-2.72112 -2.18752,-4.05493l-1.04026,0.05337c1.86741,3.36133 3.70801,6.90935 5.73553,10.61736c-4.05505,-2.66774 -7.65631,-6.13558 -10.88422,-10.29725l-1.12044,0.08006c3.06779,4.08161 6.53587,7.49607 10.40399,10.19063c-0.93377,-0.29355 -2.00072,-0.66703 -3.17453,-1.17382c-1.17382,-0.50691 -2.40101,-1.14713 -3.70801,-1.92078c-2.64118,-1.57386 -5.36214,-3.76138 -7.89642,-6.82917l-2.58765,0.15999c1.76066,2.24077 3.54801,3.94806 5.12192,5.25531c1.62733,1.28044 2.9877,2.16083 3.86822,2.69443c2.05396,1.28044 4.13486,2.18739 6.00215,2.8543c1.89409,0.66691 3.54814,1.09376 4.98857,1.38731c0.88039,4.16142 2.10746,8.42984 3.70801,12.72481c-1.04039,-1.41399 -2.13402,-2.96129 -3.62795,-4.48178c-1.25375,-1.41387 -2.61437,-2.66774 -3.9215,-3.81475c-1.28056,-1.17382 -2.61437,-2.18764 -3.86812,-3.0946c-2.42757,-1.84072 -4.72183,-3.20109 -6.24232,-4.0548c-0.10677,0.64022 -0.18679,1.60067 -0.18679,2.82774c0,1.22707 0.05334,2.69443 0.40016,4.32166c0.15999,0.80021 0.3468,1.65392 0.61353,2.53419c0.29342,0.85371 0.64022,1.76079 1.06707,2.66774c0.80034,1.81404 2.02752,3.65476 3.54801,5.38861c1.46724,1.62723 3.0946,2.90779 4.66846,3.9215c1.62723,0.98714 3.2279,1.70742 4.72183,2.2142c3.06779,0.98739 5.62879,1.17443 7.14928,1.20038c0.66691,1.20112 1.30712,2.42707 2.00072,3.6282c0.7204,1.17394 1.38718,2.40113 2.16083,3.57507c-1.81391,-1.68159 -3.89469,-3.28152 -6.18895,-4.56196c-1.62723,-0.88039 -3.97487,-1.78809 -6.74936,-2.7478c-1.36037,-0.48023 -2.80105,-0.98701 -4.29473,-1.52061c-1.49393,-0.5336 -3.01466,-1.06707 -4.48178,-1.62736c-1.46724,-0.56016 -2.93448,-1.12044 -4.32166,-1.62723c-1.36051,-0.56016 -2.64098,-1.06707 -3.78808,-1.52061c-2.2942,-0.90696 -4.02819,-1.60055 -4.72178,-1.81404c0,0.08018 0.05334,0.26686 0.13338,0.56016l-0.18674,-0.13331l0.32012,0.5336c0.2134,0.64022 0.53352,1.52049 0.98704,2.61437c0.4535,1.09364 0.98705,2.3742 1.70732,3.76138c0.72026,1.38656 1.49389,2.93448 2.45424,4.48116c0.96037,1.54792 2.00075,3.17503 3.17456,4.72171c2.29414,3.14908 5.09519,6.10988 7.94961,8.4837c1.41399,1.17394 2.93448,2.16083 4.37504,3.01405c1.46724,0.82715 2.93436,1.44142 4.34835,1.84146c2.82761,0.7739 6.48237,0.42722 9.76352,-0.3741c3.33477,-0.79984 6.26913,-1.99973 7.92305,-2.7478c3.12116,3.68157 6.45581,7.22971 9.97714,10.59141c0.72028,0.6931 1.44043,1.35901 2.16083,2.0274c-2.96117,-1.49368 -6.45581,-2.82798 -10.75066,-3.73482c-5.41542,-1.12057 -10.56411,-1.44055 -15.04589,-1.3343c-4.42828,0.05313 -8.13629,0.53372 -10.35037,0.90683l-0.58697,-0.07907l0.40017,0.31875c3.25459,6.80372 7.8163,10.67073 10.59067,12.56593c0.40017,0.27674 0.8012,0.54113 1.20248,0.79317c1.2129,-0.12519 2.4267,-0.24792 3.64142,-0.36817c-5.95174,-2.91817 -9.87768,-7.31396 -11.9398,-10.26797c7.18609,4.85662 14.54453,7.84027 21.71852,9.35248c1.18366,-0.1046 2.36654,-0.20715 3.54863,-0.30763c-8.39364,-1.2923 -17.15087,-4.52922 -25.61407,-10.48664c0.85371,0.13343 1.78735,0.29281 2.74768,0.45465c0.98714,0.15938 2.02752,0.34593 3.12116,0.53249c2.16096,0.40029 4.56184,0.85371 7.12284,1.41337c5.12188,1.09339 10.91078,2.508 17.20635,4.42791l0.06375,-0.07042c2.66379,0.81047 5.41468,1.70865 8.25317,2.72791c1.65429,-0.11696 3.30895,-0.22939 4.96398,-0.33728zM175.10075,151.77345c1.44043,-2.16083 2.53431,-4.45497 3.54801,-6.74923c0.50679,-1.14701 0.90708,-2.32082 1.28056,-3.46796c0.40004,-1.14713 0.74696,-2.29414 1.04026,-3.41458c1.2005,-4.50835 1.68061,-8.80333 1.49393,-12.00449c-3.94818,7.9496 -6.72255,17.49984 -7.36276,25.63626zM367.57438,126.16381c-0.18779,3.20117 0.29281,7.46952 1.49244,12.00444c0.29404,1.12044 0.64121,2.2677 1.04026,3.41471c0.40029,1.14701 0.80182,2.32082 1.28118,3.46796c1.01432,2.29414 2.10771,4.5884 3.54703,6.74923c-0.61279,-8.1631 -3.38641,-17.71335 -7.36091,-25.63633zM376.66989,139.28869c-0.61403,-1.86741 -1.57275,-3.68132 -2.64019,-5.362c-1.1218,-1.65389 -2.37457,-3.22779 -3.54826,-4.66832c-0.23968,-0.32023 -0.4806,-0.58697 -0.74622,-0.88044c3.36047,7.44293 5.62755,15.97952 6.18845,23.34228c2.26708,-5.84228 1.41337,-10.244 0.74622,-12.43151zM174.14042,151.74677c0.56016,-7.36276 2.82761,-15.87266 6.18895,-23.3421c-0.24017,0.26672 -0.50679,0.5602 -0.74696,0.88031c-1.17382,1.44053 -2.40088,2.98782 -3.54801,4.66846c-1.09364,1.68062 -2.0274,3.46784 -2.64093,5.36206c-0.66703,2.16071 -1.52061,6.56243 0.74696,12.43127zM183.45053,128.72477c-0.07993,1.4939 -0.18668,3.1478 -0.48023,4.88181c-0.13331,0.88032 -0.32011,1.76061 -0.53347,2.66769c-0.18668,0.90696 -0.40017,1.84072 -0.66691,2.77436c-0.26674,0.93364 -0.56028,1.89409 -0.90696,2.82774c-0.32023,0.96033 -0.66703,1.92078 -1.0672,2.88111c-0.40004,0.96033 -0.8269,1.92078 -1.30712,2.88111c-0.45354,0.96045 -0.96033,1.92078 -1.49393,2.85442c1.97415,-2.05409 4.34835,-4.98857 5.73553,-9.01681c0.88039,-2.48082 1.14713,-4.88182 1.22707,-7.04256c0.10687,-2.16086 -0.21324,-4.13498 -0.50679,-5.70888zM366.05352,134.43353c0.07907,2.16086 0.34593,4.56174 1.22682,7.04268c1.38743,4.05493 3.76076,6.98928 5.73504,9.01681c-0.55967,-0.93364 -1.04026,-1.89409 -1.49368,-2.85442c-0.4806,-0.96033 -0.93401,-1.92078 -1.30836,-2.88111c-0.39906,-0.96045 -0.71904,-1.92078 -1.06621,-2.88111c-0.34593,-0.96033 -0.63997,-1.89409 -0.90683,-2.82774c-0.26686,-0.93377 -0.4806,-1.86741 -0.66592,-2.77436c-0.21497,-0.90708 -0.37435,-1.78737 -0.53372,-2.66769c-0.29404,-1.73401 -0.40029,-3.41466 -0.4806,-4.88181c-0.01112,0.07013 -0.02224,0.14103 -0.03336,0.21283v0.00195v0.00089c-0.23474,1.53698 -0.52384,3.43001 -0.47318,5.49308zM391.74258,160.49671c-1.12057,1.65404 -2.53394,3.0946 -4.02886,4.29498c-2.96018,2.42757 -6.29594,3.97487 -7.84274,4.6419c-0.13343,-1.20063 -0.37311,-2.90792 -0.45218,-4.98857c-0.02224,-0.92203 -0.07289,-1.76524 -0.11984,-2.5568c-0.06672,-1.1097 -0.12602,-2.11796 -0.09513,-3.0988c0.08031,-1.65392 0.24092,-3.17453 0.80182,-4.82845c1.09339,-3.2279 2.933,-5.49548 6.53562,-10.29725c1.33307,-1.81404 2.508,-3.30796 3.36047,-4.34823c0.42747,0.88027 0.95996,1.92053 1.44055,3.20109c0.4806,1.28044 0.93401,2.74768 1.36025,4.37504c0.05313,0.21349 0.16061,0.66691 0.29404,1.22719c0.10625,0.58685 0.23968,1.30712 0.37435,2.10746c0.23845,1.57386 0.47813,3.3879 0.34593,4.82845c-0.18656,1.97415 -0.90683,3.81475 -1.97428,5.44198zM235.63813,145.01446c3.79128,0 5.83301,3.06235 5.83301,9.47875v72.91268c0,6.4164 -2.04173,9.4785 -5.83301,9.4785v2.18678h49.87283c27.26923,0 45.35028,-10.78995 45.35028,-27.12307c0,-12.83255 -12.68577,-22.16539 -32.81029,-24.93605c15.16659,-3.35392 24.35229,-10.64515 24.35229,-20.41547c0,-14.29089 -16.18585,-23.76952 -40.53937,-23.76952h-46.37164zM169.15185,166.68579c-0.64034,-4.02824 -2.29426,-8.56327 -3.89493,-12.77819c-1.68061,-4.21492 -3.33453,-8.08304 -4.48153,-10.59067c-0.08018,0.58685 -0.13355,1.17382 -0.21349,1.73398c-0.15999,1.38718 -0.3468,2.69443 -0.3468,4.1083c0.02669,1.41374 0.21337,2.88111 0.69359,4.56171c0.98701,3.33453 3.22778,7.60282 8.24316,13.15154zM380.91124,166.89915c5.016,-5.54873 7.25713,-9.81714 8.24427,-13.15167c0.4806,-1.68061 0.66592,-3.14772 0.6931,-4.56171c0,-1.38706 -0.18656,-2.69431 -0.34717,-4.10817c-0.08031,-0.56016 -0.13343,-1.14701 -0.21374,-1.73398c-1.14651,2.50763 -2.8008,6.37587 -4.48104,10.59067c-1.62711,4.21492 -3.25422,8.72326 -3.89543,12.77819zM162.32256,144.51743c2.13415,4.85514 5.30868,12.05779 7.01597,18.51359c0,-0.48023 0,-0.98701 0.02669,-1.52061c0.02669,-1.8406 0.02669,-3.20122 -0.08006,-4.4016c-0.07993,-1.20038 -0.26674,-2.2142 -0.72028,-3.33465c-0.56016,-1.46712 -1.86741,-3.09447 -4.2148,-6.42912c-0.7204,-1.0137 -1.41399,-1.94734 -2.02752,-2.82761zM385.68632,147.37185c-2.34739,3.33453 -3.65451,4.96176 -4.21541,6.429c-0.45218,1.12044 -0.61279,2.13415 -0.71904,3.33465c-0.08772,0.9927 -0.08525,2.11302 -0.08154,3.49674c0.00124,0.28984 0.00124,0.59092 0.00124,0.90498c0,0.5336 0.02718,1.04039 0.02718,1.52061c1.70618,-6.45581 4.88133,-13.65858 7.01498,-18.51372c-0.58561,0.85358 -1.27994,1.78723 -2.0274,2.82774zM388.51554,161.51041c1.76054,-1.94734 3.09361,-4.26817 3.30734,-6.82917c0.08031,-1.14713 -0.08031,-3.06779 -0.24092,-4.48178c-0.2125,-1.89397 -0.63997,-3.54801 -1.06744,-4.96176c0.02471,0.20027 0.04818,0.39856 0.07289,0.59512c0.13961,1.13774 0.27057,2.22347 0.24833,3.40631c-0.02718,1.38718 -0.18779,2.82774 -0.63997,4.42841c-0.40029,1.60067 -1.22805,3.44127 -2.37457,5.46879c-1.12057,2.05409 -2.8008,4.37491 -5.01476,6.96247c1.7593,-1.06695 3.92014,-2.61425 5.70909,-4.5884zM167.25776,166.09881c-2.2142,-2.56088 -3.89481,-4.90851 -5.01525,-6.9626c-1.14701,-2.05409 -1.94734,-3.86812 -2.3742,-5.46867c-0.42685,-1.62723 -0.61353,-3.06779 -0.64022,-4.42841c-0.02298,-1.16974 0.11181,-2.2803 0.25179,-3.43324c0.02286,-0.18841 0.04584,-0.37744 0.06832,-0.56819c-0.42685,1.41374 -0.88027,3.06779 -1.06707,4.96176c-0.16012,1.44055 -0.32011,3.33465 -0.24005,4.48178c0.21337,2.561 1.5473,4.88182 3.30784,6.82917c1.78747,1.97415 3.94818,3.52145 5.70885,4.5884zM265.5321,185.26227v-36.3105h16.33176c9.77131,0 16.18709,6.99966 16.18709,17.64481c0,11.22854 -7.87487,18.66568 -19.54014,18.66568zM171.52605,178.13004v1.2005c4.13486,-3.89481 7.49607,-9.3636 10.43055,-14.27211c0.69359,-1.22707 1.41399,-2.42757 2.02752,-3.5747c0.61341,-1.17369 1.17369,-2.24077 1.70729,-3.2279c0.50679,-0.98701 0.93364,-1.92053 1.28056,-2.69431c0.37323,-0.80034 0.66678,-1.46712 0.85346,-2.00072c-0.13331,0.05337 -0.26661,0.07993 -0.42685,0.13331c-2.77424,2.00084 -6.32225,5.52217 -9.49679,9.92376c-3.09447,4.40172 -5.60222,9.68359 -6.37575,14.51216zM372.16167,163.64468c-3.14797,-4.40172 -6.72218,-7.92305 -9.49703,-9.92376c-0.13343,-0.05337 -0.29281,-0.08018 -0.42624,-0.13355c0.18656,0.5336 0.50654,1.20063 0.85247,2.00096c0.3484,0.80021 0.77464,1.70717 1.28241,2.69431c0.50654,0.98701 1.09339,2.05409 1.70618,3.22778c0.58685,1.14713 1.33307,2.34763 2.02864,3.57482c2.90705,4.90839 6.2947,10.35049 10.42981,14.27199v-1.2005c-0.7734,-4.85501 -3.2814,-10.13713 -6.37624,-14.51204zM375.92366,163.5645c-0.74746,-1.17369 -1.68147,-2.34751 -2.74768,-3.44127c-1.20087,-1.28044 -2.53518,-2.32082 -3.86825,-3.20109c-1.3343,-0.88039 -2.64143,-1.57398 -3.86825,-2.13415c1.12057,0.98701 2.32021,2.16071 3.57421,3.49464c1.254,1.33381 2.42769,2.82761 3.62857,4.42828c1.19964,1.60055 2.21396,3.33453 3.25422,5.122c0.93401,1.78735 1.78649,3.65463 2.42769,5.52192c-0.02594,-0.56016 -0.08031,-1.12032 -0.13343,-1.6538c-0.16061,-1.60067 -0.26686,-3.14797 -0.45465,-4.58852c-0.50531,-1.17382 -1.09339,-2.34739 -1.81243,-3.54801zM172.32638,167.11252c-0.18668,1.44055 -0.29342,2.96117 -0.45354,4.58852c-0.05337,0.5336 -0.10662,1.09364 -0.13343,1.65392c0.64034,-1.86728 1.49393,-3.73469 2.42757,-5.52204c1.0137,-1.78747 2.05421,-3.52133 3.25459,-5.122c1.2005,-1.60055 2.3742,-3.09447 3.6282,-4.42828c1.25375,-1.33393 2.45413,-2.50763 3.57458,-3.49464c-1.22719,0.56016 -2.561,1.25375 -3.86812,2.13415c-1.33381,0.88027 -2.66774,1.94734 -3.86812,3.20109c-1.06707,1.12044 -2.00072,2.26758 -2.74768,3.44139c-0.7204,1.2005 -1.30725,2.3742 -1.81404,3.54789zM187.95887,155.58833c-0.53347,1.28044 -1.30712,2.82761 -2.24089,4.56171c-0.42673,0.88027 -0.90696,1.78723 -1.44055,2.72087c-0.53335,0.93377 -1.09364,1.89422 -1.6538,2.90779c-2.37432,3.94818 -4.96201,8.18979 -8.13654,11.7378c1.49393,-1.20038 3.12116,-2.64093 4.72183,-4.34835c1.70742,-1.70729 3.20122,-3.62795 4.66846,-5.86884c1.41387,-2.29414 2.42757,-4.45497 3.01442,-6.45569c0.61366,-1.97415 0.93377,-3.76163 1.06707,-5.25531zM363.19836,160.8702c0.58808,2.00072 1.59993,4.16167 3.01454,6.45581c1.46773,2.24089 2.96141,4.16155 4.66883,5.86896c1.60117,1.70717 3.22827,3.14772 4.72072,4.3481c-3.14673,-3.54789 -5.73504,-7.7895 -8.13678,-11.73768c-0.58561,-1.0137 -1.11933,-1.97403 -1.65305,-2.90767c-0.53372,-0.93377 -1.01432,-1.86741 -1.43932,-2.72112c-0.96119,-1.73398 -1.70865,-3.30796 -2.24237,-4.56171c0.10749,1.46712 0.42747,3.25459 1.06744,5.25531zM385.24279,186.7725l0.01853,0.00086c6.2947,-11.76449 12.05692,-21.18134 16.11049,-26.73007c-1.64688,10.44624 -5.46694,19.75376 -10.90547,26.97259l-0.03089,-0.00247c-3.20109,4.16155 -6.80372,7.62963 -10.88446,10.29725c2.01134,-3.67897 3.83983,-7.20042 5.6918,-10.53816zM382.15783,186.53134c0.82653,-2.30538 2.01999,-4.79472 3.47537,-7.49434c1.06744,-1.81391 2.05458,-3.5212 3.17515,-5.12188c0.55967,-0.80021 1.12057,-1.57386 1.68023,-2.32082c0.53372,-0.74696 1.09339,-1.46724 1.65429,-2.16071c1.11933,-1.38731 2.26832,-2.66774 3.33329,-3.84156c1.0415,-1.14701 2.08176,-2.18752 3.01577,-3.0946c-3.91149,5.74714 -8.85706,14.12139 -14.23011,24.14337l-0.01483,-0.00086c-0.72151,1.33393 -1.46773,2.66774 -2.18925,4.0548c-0.74622,1.38731 -1.54557,2.77449 -2.26708,4.21504c0.18779,-1.12044 0.4806,-2.42757 0.90807,-3.81475c0.37311,-1.41399 0.85371,-2.93448 1.49368,-4.56171zM187.98568,182.47839c-0.98714,0.93377 -2.00084,1.97403 -3.04123,3.09447l1.17382,-0.08006c1.30712,-1.41387 2.61437,-2.69431 3.86812,-3.78807c-0.34692,1.22719 -0.7204,2.42757 -1.17382,3.62795l0.98701,-0.05325c0.26674,-0.69359 0.50691,-1.41387 0.74696,-2.13415c0.02669,0.61353 0,1.30712 -0.08006,2.0809l1.65404,-0.10687c0.16012,-1.44043 0.05337,-2.66762 -0.05337,-3.68132c-0.08006,-1.04039 -0.26674,-1.81404 -0.37348,-2.29426c-1.30725,0.50691 -3.01442,1.25388 -4.88182,2.34763c-1.84085,1.06707 -3.7615,2.45425 -5.68216,4.29498l2.34751,-0.13331c1.54718,-1.30725 3.09447,-2.34763 4.50847,-3.17466zM363.99894,185.49663l-0.05313,-0.00371c-1.30836,-1.41399 -2.61425,-2.69443 -3.86825,-3.78819c0.34099,1.20767 0.70792,2.38939 1.15146,3.57075l0.07536,0.00408c2.45364,7.17584 6.24158,13.60508 11.71099,21.34133c0.18656,0.15999 0.34593,0.32011 0.50778,0.45342c-0.02718,-1.06695 -0.18779,-2.13402 -0.34717,-3.17453c-0.16061,-1.04039 -0.34717,-2.08065 -0.63997,-3.09447c-0.2681,-1.0137 -0.58685,-2.00084 -0.93401,-2.98773c-0.37435,-0.98701 -0.7734,-1.92078 -1.20087,-2.82786c-0.40029,-0.90683 -0.88089,-1.81391 -1.41461,-2.66762c-0.50654,-0.85358 -1.01308,-1.68061 -1.5468,-2.48082c-1.11068,-1.58856 -2.27573,-3.0453 -3.44078,-4.34464zM366.58724,185.65304c-1.54804,-1.30725 -3.09484,-2.34763 -4.50945,-3.17466c0.97849,0.92512 1.98169,1.95513 3.0133,3.06408l0.05436,0.00383c1.04026,1.20038 2.08176,2.53419 3.09484,3.94806c0.96119,1.41387 1.86679,2.96117 2.69455,4.5884c1.57398,3.2279 2.85393,6.88266 3.2814,10.67073c0.26563,-1.76066 0.26563,-3.97487 -0.13343,-6.42912c-0.26686,-1.22707 -0.61279,-2.53431 -1.12057,-3.84144c-0.53372,-1.33381 -1.254,-2.66774 -2.10771,-4.00155c-1.28118,-1.92066 -2.77486,-3.5212 -4.2673,-4.82833zM360.33701,185.28339l-0.07289,-0.00383c-0.26686,-0.69371 -0.50654,-1.41399 -0.74622,-2.13427c-0.02594,0.59834 -0.00124,1.27303 0.07289,2.02369l0.0593,0.00383c0.16061,2.69431 1.14775,6.18895 3.78918,10.45712c1.01308,1.60067 2.08053,3.06791 3.25422,4.45509c1.14651,1.36062 2.2399,2.61437 3.33453,3.70801c-4.41556,-6.54241 -7.53017,-12.23656 -9.691,-18.50964zM265.5321,190.94924h11.95821c16.62321,0 27.70658,8.45788 27.70658,20.99886c0,12.54122 -8.89536,20.99898 -22.3113,20.99898h-17.35349zM194.38799,213.7168c-0.58685,5.89565 -1.52061,12.858 -2.74768,22.19492c-1.73398,-3.92174 -3.30796,-11.49775 -2.85442,-18.9402c0.24005,-3.7615 0.90696,-7.41614 2.0274,-10.64416c0.5336,-1.60055 1.25388,-3.12116 1.92078,-4.45485c0.72015,-1.36062 1.5473,-2.56112 2.34751,-3.60151c0,4.77508 -0.10662,9.57697 -0.69359,15.44581zM361.27844,216.97151c0.47936,7.44245 -1.12057,14.99251 -2.82798,18.91426c-1.254,-9.33692 -2.18801,-16.27332 -2.77486,-22.16897c-0.58685,-5.86884 -0.69433,-10.64392 -0.69433,-15.44581c0.80182,1.04039 1.62835,2.24089 2.34739,3.60126c0.69433,1.33393 1.41461,2.85455 1.92115,4.45509c1.12057,3.22803 1.78772,6.90935 2.02864,10.64416zM363.14523,226.36192c-0.21374,0.6401 -0.45465,1.28031 -0.69433,1.89335c-0.53249,1.46736 -1.17246,2.7478 -1.81243,3.8958c1.22682,-4.56196 1.94586,-10.80465 1.35901,-16.75367c-0.53372,-5.97558 -2.40051,-11.60437 -4.90851,-15.47249c2.16083,2.05421 3.62857,4.08161 4.74913,5.94902c1.09339,1.86741 1.70742,3.52133 2.13365,4.85501c0.4806,1.68073 0.7734,3.33477 0.87965,4.90863c0.05436,1.57386 0.05436,3.12116 -0.18532,4.56171c-0.21374,1.44055 -0.4806,2.85504 -0.90807,4.18873c-0.2125,0.66616 -0.39906,1.33369 -0.61279,1.97391zM188.01224,215.3974c-0.58685,5.94902 0.13331,12.19159 1.3605,16.75367c-0.58685,-1.148 -1.22719,-2.42843 -1.81391,-3.89592c-0.21349,-0.61292 -0.48023,-1.25313 -0.69359,-1.89335c-0.1868,-0.6401 -0.40029,-1.30762 -0.61366,-1.97378c-0.40017,-1.33369 -0.69359,-2.74805 -0.90708,-4.18873c-0.23993,-1.44055 -0.23993,-2.98773 -0.18668,-4.56171c0.10674,-1.57398 0.40017,-3.22778 0.88039,-4.90851c0.42673,-1.33393 1.04039,-2.98773 2.13415,-4.85514c1.12044,-1.86741 2.58756,-3.89493 4.74839,-5.9489c-2.5075,3.89481 -4.37491,9.49691 -4.90851,15.47237zM352.60793,206.54071c0.13343,-1.36037 0.34593,-2.56088 0.61403,-3.62795c0.2125,-1.06707 0.55967,-2.00072 0.85247,-2.82774c0.02718,4.18823 0.21374,8.45665 0.72151,13.60521c0.50654,5.14844 1.30589,11.15095 2.32021,18.86076c-1.54804,-4.24259 -3.25422,-10.00444 -4.13511,-15.95297c-0.61403,-4.1083 -0.66715,-7.36276 -0.37311,-10.05732zM195.26826,213.69023c0.50704,-5.122 0.66703,-9.41698 0.7204,-13.60521c0.29342,0.82702 0.64022,1.76066 0.85371,2.82774c0.26674,1.06707 0.50679,2.26758 0.61341,3.62795c0.29342,2.69455 0.26686,5.94902 -0.37348,10.05732c-0.88027,5.94853 -2.61425,11.68443 -4.13486,15.95297c0.98701,-7.70981 1.81404,-13.71232 2.32082,-18.86076zM167.97803,206.54071c1.04039,0.96045 2.05409,2.05421 3.0946,3.20134c1.70717,2.00072 3.06779,3.89469 4.08149,5.65535c1.06707,1.70742 1.70717,3.30796 2.24077,4.53515c-1.3605,-0.74696 -2.88099,-1.94747 -4.66846,-3.36133c-1.68061,-1.46712 -3.57458,-3.17453 -5.25518,-5.0685c-1.76066,-1.86741 -3.2814,-3.9215 -4.66846,-5.84228c-1.25388,-1.94734 -2.40088,-3.78819 -3.01442,-5.30868v-0.07993c1.28031,0.8269 3.14772,2.05409 5.12188,3.62795c0.96033,0.80034 2.00072,1.68061 3.06779,2.64093zM372.69539,219.93255c0.53372,-1.22719 1.17369,-2.82774 2.2399,-4.53515c0.98837,-1.76066 2.34862,-3.65463 4.08322,-5.65535c1.04026,-1.14713 2.05335,-2.24089 3.09361,-3.20134c1.06744,-0.96033 2.10771,-1.8406 3.06766,-2.64093c1.97428,-1.57386 3.81512,-2.80105 5.12225,-3.62795v0.07993c-0.58685,1.52074 -1.73336,3.36133 -3.01454,5.30868c-1.38619,1.92078 -2.90705,3.97487 -4.66759,5.84228c-1.68147,1.89397 -3.57544,3.60139 -5.25568,5.0685c-1.78896,1.41387 -3.33453,2.58769 -4.66883,3.36133zM171.92621,217.1315c1.54718,1.25375 2.90779,2.32082 4.16155,3.09447c-1.76066,-0.37348 -4.10817,-1.14713 -6.64261,-2.64106c-1.25375,-0.77353 -2.5075,-1.70729 -3.73457,-2.88111c-1.17382,-1.20038 -2.32095,-2.58756 -3.28128,-4.2416c-0.74696,-1.38706 -1.33381,-2.74768 -1.76066,-4.02812c-0.37348,-1.30712 -0.61366,-2.53431 -0.74696,-3.65476c0.88027,1.52061 1.92078,3.25459 3.22778,4.96201c0.64034,0.85358 1.28056,1.70717 2.00084,2.56088c0.72028,0.85358 1.46724,1.68073 2.2142,2.48094c0.72028,0.80021 1.52049,1.57398 2.29414,2.29414c0.77365,0.7204 1.49393,1.44055 2.26758,2.05421zM384.38044,214.70381c-1.22682,1.17382 -2.508,2.10758 -3.73482,2.88111c-2.56112,1.49393 -4.90851,2.26758 -6.64434,2.64106c1.25523,-0.77365 2.61548,-1.84072 4.16229,-3.09447c0.74746,-0.64022 1.49491,-1.33381 2.26708,-2.05421c0.74746,-0.72015 1.57398,-1.49393 2.2955,-2.29414c0.74622,-0.80021 1.49368,-1.62736 2.21396,-2.48094c0.6931,-0.82702 1.36025,-1.70729 2.00146,-2.56088c1.30589,-1.70742 2.34615,-3.44139 3.22704,-4.96201c-0.13343,1.12044 -0.37311,2.34763 -0.74746,3.65476c-0.42624,1.30725 -1.01308,2.66762 -1.76054,4.02812c-0.98714,1.65404 -2.10771,3.06791 -3.28016,4.2416zM172.37975,228.25528c6.05564,3.04123 12.0311,6.26962 17.6332,10.69778c-5.33524,-0.90646 -13.17823,-3.38802 -20.40769,-7.49681c-3.60139,-2.02715 -7.12259,-4.37491 -10.03051,-6.77481c-0.72015,-0.61415 -1.44043,-1.20112 -2.10739,-1.78809c-0.66692,-0.58697 -1.28047,-1.20013 -1.86736,-1.76042c-1.17378,-1.14701 -2.21417,-2.21408 -2.9878,-3.20109c0.69359,0.42685 1.41387,0.88027 2.18751,1.30712c5.3887,3.14797 11.52427,5.97496 17.58004,9.01631zM390.51453,224.68144c-2.90705,2.39989 -6.42813,4.74765 -10.02952,6.77481c-7.2559,4.10879 -15.09988,6.59035 -20.40744,7.49681c5.60161,-4.42816 11.55038,-7.65656 17.63258,-10.69778c6.05626,-3.04135 12.19159,-5.86834 17.58069,-9.01631c0.7734,-0.42685 1.49368,-0.85371 2.18678,-1.30712c-0.7734,0.98701 -1.83961,2.05409 -2.98736,3.20109c-0.58685,0.58697 -1.20087,1.17345 -1.86803,1.76042c-0.66592,0.58697 -1.38619,1.20112 -2.10771,1.78809zM394.24935,218.70537c-5.0407,2.90779 -10.69667,5.57492 -16.29828,8.37597c-5.63002,2.82835 -11.20445,5.76308 -16.51325,9.57709c2.48082,-2.98674 6.0822,-7.25528 10.56448,-9.79009c1.04026,-0.61292 2.56112,-1.19989 4.34761,-1.81416c1.76054,-0.64022 3.78794,-1.30638 5.92283,-1.99985c2.08053,-0.72065 4.26854,-1.49454 6.34906,-2.2147c2.05458,-0.77377 4.00044,-1.52074 5.62755,-2.13427zM178.0351,226.89565c4.48178,2.53345 8.08317,6.80199 10.56411,9.79009c-5.28199,-3.84131 -10.85753,-6.77617 -16.513,-9.57722c-5.6021,-2.80105 -11.25757,-5.46879 -16.29945,-8.37647c1.62727,0.61366 3.57476,1.36062 5.62885,2.13415c2.08077,0.72015 4.26817,1.49343 6.34906,2.21408c2.13415,0.69347 4.18823,1.36099 5.92209,2.00121c1.78747,0.61292 3.30796,1.19989 4.34835,1.81416zM171.31256,233.43139c6.90935,3.54777 13.97857,5.65547 18.86051,6.45531c-0.3468,0.1338 -0.77365,0.29355 -1.25375,0.42735c-1.25375,0.29342 -2.85442,0.53372 -4.7752,0.55967c-1.92078,0.0273 -4.16167,-0.1338 -6.64249,-0.72077c-1.57398,-0.34667 -3.33465,-0.87916 -5.22862,-1.73361c-1.92078,-0.79996 -3.94818,-1.92066 -6.05564,-3.41397c-4.18823,-2.9881 -8.69657,-7.55006 -12.40471,-14.29917c2.00076,2.10795 4.64177,4.42853 7.65619,6.64261c3.01454,2.21408 6.37587,4.32166 9.84371,6.08257zM365.91885,240.92697c-1.89397,-0.02607 -3.52108,-0.26624 -4.77384,-0.55979c-0.4806,-0.18693 -0.90807,-0.34667 -1.25523,-0.42722c4.88257,-0.7739 11.95314,-2.90755 18.86064,-6.45531c3.46919,-1.76091 6.82966,-3.86849 9.8442,-6.08257c3.01454,-2.21408 5.65473,-4.53466 7.65619,-6.64261c-3.70764,6.74911 -8.21585,11.31107 -12.40409,14.29917c-2.13489,1.46736 -4.13511,2.614 -6.05502,3.41397c-1.89521,0.82715 -3.65575,1.38694 -5.22973,1.73361c-2.45487,0.58697 -4.72195,0.74795 -6.64311,0.72077zM349.80589,236.60518c0.10749,2.69455 -0.31875,5.01525 -0.85247,6.98904c-0.58685,1.94796 -1.30836,3.57482 -2.05458,4.72257c0.04324,-1.56287 -0.00124,-3.40841 -0.04818,-5.33549v-0.00655c-0.01112,-0.43884 -0.02224,-0.88299 -0.03212,-1.32714c-0.10625,-2.45438 -0.21374,-4.98919 -0.47936,-7.46951c-0.40153,-4.90863 -1.22682,-9.41747 -1.54804,-12.05877c1.89521,2.82835 4.80226,7.97729 5.01476,14.48585zM203.21293,241.90607l-0.00062,0.0273c-0.05127,2.33355 -0.10007,4.55801 -0.07425,6.40936c-0.7204,-1.17369 -1.44055,-2.80056 -2.05421,-4.72121c-0.56016,-2.00109 -0.96033,-4.32179 -0.85358,-6.98904c0.21337,-6.50992 3.12116,-11.6848 5.01513,-14.48585c-0.32011,2.61412 -1.12044,7.15002 -1.54718,12.05742c-0.24005,2.48168 -0.37348,5.01525 -0.48023,7.46951zM343.96461,240.92697c-0.61403,-2.72062 -1.11933,-5.81522 -1.17493,-8.99025c-0.05313,-4.21517 0.5609,-7.25528 1.20211,-9.28367c0.42624,2.80105 1.12057,7.15014 1.51962,11.7913c0.42624,4.64239 0.5609,9.6044 0.53372,13.31154c-0.63997,-1.73324 -1.44055,-4.10706 -2.08053,-6.82892zM204.52524,234.44435c0.40004,-4.66846 1.12032,-8.99025 1.52049,-11.7913c0.66691,2.02839 1.28056,5.06974 1.20038,9.28367c-0.05325,3.17503 -0.56016,6.26962 -1.17369,8.99025c-0.64034,2.72186 -1.41387,5.09568 -2.08077,6.82892c-0.02669,-3.70714 0.13331,-8.66902 0.5336,-13.31154zM378.56386,241.06064c-1.81367,0.88052 -3.92014,1.25313 -6.02784,1.33369c-2.13489,0.05325 -4.29572,-0.21299 -6.24281,-0.61292c3.14797,0.02594 7.01498,-0.45453 11.33664,-2.21544c4.34884,-1.73361 9.09674,-4.8009 13.6062,-9.92253c-3.81636,4.96188 -8.75081,9.54979 -12.67218,11.4172zM172.40632,239.56598c4.32166,1.76091 8.21647,2.24138 11.33776,2.21544c-1.92078,0.39992 -4.08174,0.66616 -6.24244,0.61292c-2.10746,-0.08055 -4.21492,-0.45317 -6.02895,-1.33369c-3.94818,-1.86741 -8.88325,-6.45531 -12.67144,-11.4172c4.53515,5.09432 9.28355,8.18892 13.60508,9.92253zM335.34846,238.07267c0,1.44006 -0.05436,2.93473 -0.18779,4.48141l-0.79935,-0.88052c0.15938,-1.97378 0.18656,-3.86713 0.13343,-5.62805c-0.6931,1.19989 -1.3343,2.42707 -1.94833,3.62832l-0.66715,-0.74808c0.3484,-0.71941 0.74746,-1.44006 1.14775,-2.16083c-0.4806,0.45453 -1.04026,1.01419 -1.60117,1.68172l-1.12057,-1.22719c2.08176,-2.42843 4.10916,-3.762 4.96164,-4.32179c1.06744,2.66737 2.48205,7.09553 2.45487,12.43151l-1.57398,-1.73497c-0.10625,-2.02703 -0.40029,-3.89444 -0.79935,-5.52155zM203.29805,255.2527l0.04398,-0.04942c3.06297,1.45167 5.50265,3.02813 7.31878,4.42421c-3.0411,-1.12057 -6.00227,-2.08176 -8.83001,-2.96141l-0.06375,0.07166c-10.70223,-3.23445 -20.10253,-5.17166 -27.01311,-6.3676c5.30868,-0.2125 12.88481,-0.02594 20.78117,2.08176c2.96104,0.80058 5.52204,1.7593 7.76293,2.8008z"
                    data-paper-data="{&quot;isPathIcon&quot;:true}"></path>
            </g>
            <g>
                <path
                    d="M216.07895,300.42338v0v0l-1.07961,-18.55335l6.57341,-0.3825c2.33014,-0.04886 4.0089,0.44537 5.03628,1.4827c1.02738,1.03733 1.37949,2.20718 1.05632,3.50956c-0.32316,1.30238 -1.34346,2.32443 -3.06087,3.06615c1.88232,0.60164 3.089,1.70225 3.62006,3.30184c0.53106,1.59959 0.35824,3.13822 -0.51846,4.61591c-0.87669,1.47769 -2.4878,2.33248 -4.83331,2.56436zM221.14755,289.38284v0v0c1.60267,-0.17999 2.62147,-0.85504 3.0564,-2.02516c0.43493,-1.17012 0.34352,-2.33129 -0.27425,-3.48352c-0.61777,-1.15223 -1.69161,-1.68383 -3.22151,-1.5948l-2.38562,0.13882l0.41344,7.10499zM218.77901,290.26219v0l0.53717,9.2313l2.63196,-0.15315c1.6077,-0.09355 2.61745,-0.92419 3.02924,-2.49191c0.4118,-1.56772 0.29634,-3.10476 -0.34637,-4.61112c-0.64271,-1.50636 -1.72902,-2.21503 -3.25893,-2.126z"
                    data-paper-data="{&quot;glyphName&quot;:&quot;B&quot;,&quot;glyphIndex&quot;:0,&quot;firstGlyphOfWord&quot;:true,&quot;word&quot;:1,&quot;line&quot;:1,&quot;firstGlyphOfFirstLine&quot;:true}"
                    fill-rule="nonzero"></path>
                <path
                    d="M233.03055,293.60321v0v0c0.07861,1.01922 0.34586,1.94148 0.80176,2.76678c0.45589,0.8253 1.11534,1.397 1.97835,1.7151c0.7991,0.24286 1.59675,0.30163 2.39297,0.17631c0.79622,-0.12533 1.45275,-0.32479 1.96959,-0.59839c-0.53086,0.55153 -1.14658,0.99405 -1.84716,1.32758c-0.70058,0.33352 -1.46175,0.518 -2.28351,0.55343c-1.11587,0.04811 -2.144,-0.18054 -3.08441,-0.68597c-0.94041,-0.50542 -1.70286,-1.20484 -2.28735,-2.09826c-0.58449,-0.89342 -0.90079,-1.89806 -0.94891,-3.01392c-0.04811,-1.11587 0.18054,-2.144 0.68597,-3.08441c0.50542,-0.94041 1.20484,-1.70286 2.09826,-2.28735c0.89342,-0.58449 1.89806,-0.90079 3.01392,-0.94891c1.11587,-0.04811 2.144,0.18054 3.08441,0.68597c0.94041,0.50542 1.70286,1.20484 2.28735,2.09826c0.58449,0.89342 0.90079,1.89806 0.94891,3.01392zM238.48549,292.58805v0c-0.04311,-0.39679 -0.12305,-0.84398 -0.23983,-1.34159c-0.11678,-0.4976 -0.28707,-0.9799 -0.51086,-1.44689c-0.22379,-0.46699 -0.51333,-0.85099 -0.86863,-1.15198c-0.35529,-0.301 -0.79677,-0.44012 -1.32443,-0.41737c-0.47576,0.02051 -0.87776,0.19384 -1.20601,0.51997c-0.32825,0.32614 -0.59025,0.73174 -0.78599,1.21683c-0.19574,0.48508 -0.33676,0.98297 -0.42307,1.49366c-0.08631,0.51069 -0.12953,0.96537 -0.12968,1.36402z"
                    data-paper-data="{&quot;glyphName&quot;:&quot;e&quot;,&quot;glyphIndex&quot;:1,&quot;word&quot;:1,&quot;line&quot;:1}"
                    fill-rule="nonzero"></path>
                <path
                    d="M242.6954,290.39862v0c0.03361,1.42823 0.60423,2.41612 1.71184,2.96369c1.10761,0.54756 2.31001,0.93208 3.6072,1.15354c0.88864,0.17292 1.64187,0.38017 2.25968,0.62174c0.61782,0.24157 0.94714,0.61295 0.98796,1.11413c-0.01581,1.2218 -1.0747,1.88114 -3.17669,1.97801c-1.10013,-0.00208 -2.10728,-0.30142 -3.02145,-0.89802c-0.91417,-0.5966 -1.55231,-1.30531 -1.91443,-2.12614l0.0807,2.72613c0.59496,0.49344 1.34127,0.83299 2.23895,1.01863c0.89768,0.18565 1.76625,0.26604 2.60572,0.24119c1.69626,-0.05021 3.00147,-0.43532 3.91565,-1.15534c0.91418,-0.72002 1.39013,-1.61329 1.42785,-2.67983c-0.02496,-1.42848 -0.58686,-2.41447 -1.68569,-2.95796c-1.09883,-0.54349 -2.29671,-0.92164 -3.59364,-1.13445c-0.89704,-0.16401 -1.65885,-0.36884 -2.28545,-0.61448c-0.6266,-0.24564 -0.95637,-0.63216 -0.9893,-1.15957c0.04541,-0.80691 0.43018,-1.34234 1.1543,-1.60631c0.72412,-0.26397 1.43287,-0.38889 2.12624,-0.37477c1.0057,0.03086 1.72336,0.28031 2.15299,0.74833c0.42963,0.46802 0.62222,0.97554 0.57778,1.52256c-0.04444,0.54702 -0.27052,0.95649 -0.67825,1.22842c0.88254,0.25972 1.5911,0.12831 2.12567,-0.39424c0.53457,-0.52255 0.71294,-1.15365 0.53513,-1.89332c-0.33922,-0.92545 -0.97849,-1.52586 -1.9178,-1.80122c-0.93931,-0.27536 -1.85021,-0.39565 -2.7327,-0.36087c-1.27373,-0.01427 -2.4823,0.27054 -3.62572,0.85442c-1.14342,0.58388 -1.77227,1.57913 -1.88654,2.98575z"
                    data-paper-data="{&quot;glyphName&quot;:&quot;s&quot;,&quot;glyphIndex&quot;:2,&quot;word&quot;:1,&quot;line&quot;:1}"
                    fill-rule="nonzero"></path>
                <path
                    d="M262.21432,287.29289v0l-3.35014,0.06138l0.14442,7.88193c0.00102,0.52822 0.10937,1.00684 0.32507,1.43587c0.21569,0.42903 0.56743,0.72134 1.05522,0.87693c0.49629,0.14678 1.16607,0.07389 2.00935,-0.21867c-0.76578,0.74144 -1.66232,1.19951 -2.68961,1.3742c-1.01864,0.17454 -1.92234,0.00491 -2.71112,-0.50887c-0.78862,-0.50513 -1.2123,-1.41528 -1.27104,-2.73047l-0.14751,-8.05073c-0.12985,0.00238 -0.24239,0.00444 -0.33761,0.00619c-0.09522,0.00174 -0.21642,0.00397 -0.36358,0.00666c-0.14716,0.0027 -0.36358,0.00666 -0.64925,0.0119l4.56976,-3.6818l0.05163,2.81776l3.35014,-0.06138z"
                    data-paper-data="{&quot;glyphName&quot;:&quot;t&quot;,&quot;glyphIndex&quot;:3,&quot;lastGlyphOfWord&quot;:true,&quot;word&quot;:1,&quot;line&quot;:1}"
                    fill-rule="nonzero"></path>
                <path
                    d="M273.35678,298.50389v0c0.02981,-6.19917 0.05961,-12.39401 0.08938,-18.58452l11.98708,0.05765l-0.00375,0.77923c-2.90045,-0.01395 -5.8009,-0.0279 -8.70135,-0.04185l-0.0391,8.12992c1.79222,0.00862 3.58444,0.01724 5.37665,0.02586l-0.00369,0.76624c-1.79222,-0.00862 -3.58444,-0.01724 -5.37665,-0.02586l-0.0391,8.12992c2.90045,0.01395 5.8009,0.0279 8.70135,0.04185l-0.00375,0.77923z"
                    data-paper-data="{&quot;glyphName&quot;:&quot;E&quot;,&quot;glyphIndex&quot;:4,&quot;firstGlyphOfWord&quot;:true,&quot;word&quot;:2,&quot;line&quot;:1}"
                    fill-rule="nonzero"></path>
                <path
                    d="M287.11875,289.90749v0c-0.03588,1.42817 0.48602,2.44265 1.56569,3.04343c1.07967,0.60078 2.26195,1.04331 3.54683,1.32759c0.87918,0.21593 1.62143,0.45956 2.22677,0.73089c0.60534,0.27133 0.91621,0.65828 0.93261,1.16086c-0.0752,1.21959 -1.16491,1.82665 -3.26912,1.82118c-1.09873,-0.05558 -2.09013,-0.40355 -2.9742,-1.0439c-0.88408,-0.64035 -1.487,-1.37926 -1.80877,-2.21673l-0.05197,2.72682c0.57026,0.52179 1.29918,0.89723 2.18676,1.12631c0.88759,0.22908 1.75122,0.35162 2.59091,0.36763c1.69669,0.03234 3.01909,-0.28884 3.9672,-0.96355c0.94811,-0.67471 1.46694,-1.54378 1.55649,-2.60722c0.04454,-1.42801 -0.46874,-2.44015 -1.53984,-3.03644c-1.0711,-0.59629 -2.24917,-1.03224 -3.53422,-1.30787c-0.888,-0.20744 -1.63895,-0.44907 -2.25287,-0.72489c-0.61391,-0.27582 -0.92449,-0.67793 -0.93174,-1.20631c0.0846,-0.80374 0.49495,-1.31983 1.23105,-1.54828c0.7361,-0.22844 1.45009,-0.31875 2.14195,-0.27092c1.00301,0.07974 1.70769,0.36378 2.11405,0.85214c0.40636,0.48836 0.57404,1.00465 0.50305,1.54886c-0.07099,0.54421 -0.31672,0.9422 -0.73719,1.19398c0.86887,0.30233 1.58298,0.20553 2.14232,-0.2904c0.55935,-0.49593 0.7682,-1.11762 0.62658,-1.86505c-0.29382,-0.94085 -0.90313,-1.57164 -1.82794,-1.89235c-0.92481,-0.32072 -1.82878,-0.48516 -2.71192,-0.49334c-1.27153,-0.07619 -2.49252,0.1495 -3.66298,0.67708c-1.17046,0.52758 -1.84696,1.49107 -2.02951,2.89047z"
                    data-paper-data="{&quot;glyphName&quot;:&quot;s&quot;,&quot;glyphIndex&quot;:5,&quot;word&quot;:2,&quot;line&quot;:1}"
                    fill-rule="nonzero"></path>
                <path
                    d="M298.64563,290.13324v0c-0.05391,1.4276 0.45514,2.44859 1.52715,3.06295c1.072,0.61436 2.2486,1.07178 3.52979,1.37226c0.87638,0.22701 1.6155,0.47999 2.21737,0.75894c0.60187,0.27895 0.90783,0.6698 0.91788,1.17254c-0.09059,1.21854 -1.18788,1.8118 -3.29185,1.77977c-1.09794,-0.06945 -2.08487,-0.4299 -2.96079,-1.08136c-0.87592,-0.65146 -1.46947,-1.39792 -1.78064,-2.23938l-0.08639,2.72595c0.56362,0.52895 1.28775,0.91356 2.17237,1.15383c0.88462,0.24027 1.74664,0.3737 2.58606,0.40031c1.69615,0.05376 3.0225,-0.25071 3.97905,-0.91339c0.95655,-0.66268 1.48631,-1.52514 1.58928,-2.58736c0.06256,-1.42733 -0.4379,-2.44588 -1.50139,-3.05564c-1.06349,-0.60976 -2.23596,-1.06056 -3.51743,-1.35238c-0.88531,-0.21863 -1.63315,-0.46973 -2.24354,-0.75328c-0.61038,-0.28355 -0.91586,-0.68954 -0.91644,-1.21797c0.09474,-0.80261 0.51157,-1.31348 1.2505,-1.53261c0.73893,-0.21913 1.45399,-0.30042 2.1452,-0.24386c1.00192,0.09239 1.70296,0.38531 2.10313,0.87876c0.40016,0.49345 0.56131,1.01181 0.48346,1.55508c-0.07786,0.54327 -0.32859,0.93813 -0.7522,1.18458c0.86498,0.31328 1.58026,0.2255 2.14582,-0.26333c0.56556,-0.48883 0.78225,-1.10783 0.65007,-1.857c-0.28192,-0.94449 -0.88322,-1.58291 -1.8039,-1.91528c-0.92069,-0.33237 -1.82251,-0.50821 -2.70547,-0.52753c-1.27046,-0.09224 -2.49421,0.11802 -3.67124,0.63079c-1.17703,0.51277 -1.86564,1.46764 -2.06584,2.86462z"
                    data-paper-data="{&quot;glyphName&quot;:&quot;s&quot;,&quot;glyphIndex&quot;:6,&quot;word&quot;:2,&quot;line&quot;:1}"
                    fill-rule="nonzero"></path>
                <path
                    d="M320.98516,291.41546v0v0c0.07018,0.75715 0.07963,1.51591 0.02833,2.2763c-0.09118,2.04129 -0.18255,4.0869 -0.27411,6.13684l-3.2825,-0.14662l0.10373,-2.3224c-0.66009,1.00186 -1.59055,1.65365 -2.79138,1.95535c-1.81919,0.36942 -3.1244,0.04895 -3.91561,-0.96141c-0.79122,-1.01035 -0.95223,-2.1594 -0.48304,-3.44712c0.46919,-1.28773 1.68038,-2.16098 3.63356,-2.61974c0.55937,-0.10502 1.12506,-0.15775 1.69709,-0.1582l1.3623,0.06085c0.02595,0.00116 0.06468,0.00722 0.11619,0.01819c0.06881,0.01174 0.14194,0.02367 0.2194,0.0358c0.07746,0.01213 0.14656,0.01738 0.2073,0.01576c0.06074,-0.00162 0.09169,-0.0154 0.09285,-0.04135l0.00142,-1.19595c-0.00292,-0.71081 -0.17327,-1.35976 -0.51105,-1.94685c-0.33778,-0.5871 -0.8635,-0.94425 -1.57716,-1.07146c-0.86302,-0.08188 -1.48425,0.09837 -1.86368,0.54077c-0.37943,0.44239 -0.54427,0.9312 -0.49451,1.46643c0.04976,0.53523 0.29076,0.91217 0.723,1.13081c-0.88674,0.25506 -1.59584,0.17139 -2.12732,-0.25102c-0.53147,-0.42241 -0.70295,-0.99774 -0.51441,-1.726c0.28715,-0.80185 0.90001,-1.37682 1.83857,-1.7249c0.93856,-0.34808 1.95515,-0.45434 3.04978,-0.31878c2.827,0.35161 4.41408,1.78318 4.76124,4.29472zM317.7222,292.86874v0c-0.62006,-0.08836 -1.2658,-0.08687 -1.93723,0.00447c-1.55662,0.31181 -2.47174,0.95994 -2.74539,1.9444c-0.27364,0.98446 -0.03649,1.83573 0.71144,2.55381c0.58615,0.45952 1.25363,0.602 2.00244,0.42745c0.74881,-0.17456 1.36259,-0.57615 1.84134,-1.20477z"
                    data-paper-data="{&quot;glyphName&quot;:&quot;a&quot;,&quot;glyphIndex&quot;:7,&quot;word&quot;:2,&quot;line&quot;:1}"
                    fill-rule="nonzero"></path>
                <path
                    d="M324.04197,287.72512v0l4.03686,12.22167l-0.91242,2.22265c-0.28045,0.63387 -0.68637,1.04347 -1.21776,1.22878c-0.53139,0.18532 -1.03091,0.1622 -1.49855,-0.06936c-0.46764,-0.23156 -0.75241,-0.65826 -0.8543,-1.28012c-0.59364,0.64999 -0.76442,1.3359 -0.51234,2.05773c0.25209,0.72183 0.75381,1.18309 1.50516,1.38377c0.87594,0.14736 1.59369,-0.07245 2.15324,-0.65941c0.55955,-0.58696 1.00119,-1.26982 1.32492,-2.04857l6.56714,-14.42898l-0.99826,-0.0592l-3.63618,7.78554l-2.69047,-8.16075z"
                    data-paper-data="{&quot;glyphName&quot;:&quot;y&quot;,&quot;glyphIndex&quot;:8,&quot;lastGlyphOfWord&quot;:true,&quot;word&quot;:2,&quot;line&quot;:1,&quot;lastGlyphOfFirstLine&quot;:true}"
                    fill-rule="nonzero"></path>
                <path
                    d="M216.52102,308.15108v0l4.43,11.30465l0.61994,-0.03562l2.20217,-8.48699l3.16793,8.17839l0.52332,-0.03007l3.11392,-11.73816l-0.50722,0.02915l-2.25668,8.52243l-3.18588,-8.20967l-0.52332,0.03007l-2.25113,8.61905l-3.19144,-8.30629z"
                    data-paper-data="{&quot;glyphName&quot;:&quot;W&quot;,&quot;glyphIndex&quot;:9,&quot;firstGlyphOfWord&quot;:true,&quot;word&quot;:2,&quot;line&quot;:2,&quot;firstGlyphOfSecondLine&quot;:true}"
                    fill-rule="nonzero"></path>
                <path
                    d="M232.87856,318.8339l2.0383,-0.09033l-0.15388,-3.47236c-0.02727,-0.49389 0.04137,-1.07007 0.20593,-1.72853c0.16455,-0.65846 0.45304,-1.13137 0.86544,-1.41872c0.42577,-0.22875 0.76086,-0.25705 1.00528,-0.08491c0.24442,0.17214 0.38672,0.408 0.4269,0.70759c0.04018,0.29959 -0.03564,0.53166 -0.22746,0.69623c0.66264,0.13746 1.09461,-0.01218 1.29589,-0.44894c0.20129,-0.43675 0.16366,-0.89117 -0.11289,-1.36326c-0.27655,-0.47208 -0.79884,-0.69111 -1.5669,-0.65707c-0.9114,0.07806 -1.57653,0.73449 -1.99539,1.96928l-0.07569,-1.70798l-2.0383,0.09033z"
                    data-paper-data="{&quot;glyphName&quot;:&quot;r&quot;,&quot;glyphIndex&quot;:10,&quot;word&quot;:2,&quot;line&quot;:2}"
                    fill-rule="nonzero"></path>
                <path
                    d="M240.11212,318.52738l2.0388,-0.07827l-0.28834,-7.5105l-2.0388,0.07827l0.28834,7.5105v0zM240.61963,307.57256c0.31159,-0.01196 0.58175,0.08796 0.81047,0.29977c0.22872,0.21181 0.34906,0.47351 0.36103,0.7851c0.01196,0.31159 -0.08801,0.58041 -0.29992,0.80644c-0.21191,0.22604 -0.47367,0.34503 -0.78526,0.357c-0.31159,0.01196 -0.5817,-0.08662 -0.81032,-0.29574c-0.22862,-0.20912 -0.34891,-0.46948 -0.36087,-0.78108c-0.01196,-0.31159 0.08796,-0.58175 0.29977,-0.81047c0.21181,-0.22872 0.47351,-0.34906 0.7851,-0.36103z"
                    data-paper-data="{&quot;glyphName&quot;:&quot;i&quot;,&quot;glyphIndex&quot;:11,&quot;word&quot;:2,&quot;line&quot;:2}"
                    fill-rule="nonzero"></path>
                <path
                    d="M248.2604,311.20794v0l-2.0795,0.06813l0.16029,4.89248c0.00537,0.32795 0.07693,0.62415 0.21469,0.8886c0.13776,0.26444 0.35877,0.44278 0.66303,0.53502c0.30945,0.08669 0.72466,0.03543 1.24562,-0.15377c-0.46882,0.46721 -1.02136,0.75965 -1.65762,0.87732c-0.63089,0.11749 -1.19351,0.02028 -1.68785,-0.29166c-0.49417,-0.30656 -0.76538,-0.86786 -0.81363,-1.68392l-0.16373,-4.99726c-0.0806,0.00264 -0.15046,0.00493 -0.20956,0.00687c-0.05911,0.00194 -0.13433,0.0044 -0.22568,0.00739c-0.09135,0.00299 -0.22568,0.00739 -0.403,0.0132l2.8043,-2.32692l0.0573,1.74904l2.0795,-0.06813z"
                    data-paper-data="{&quot;glyphName&quot;:&quot;t&quot;,&quot;glyphIndex&quot;:12,&quot;word&quot;:2,&quot;line&quot;:2}"
                    fill-rule="nonzero"></path>
                <path
                    d="M249.66597,318.20222l2.03952,-0.05625l-0.20722,-7.51318l-2.03952,0.05625l0.20722,7.51318v0zM250.29175,307.25352c0.31171,-0.0086 0.58077,0.09424 0.80719,0.3085c0.22642,0.21427 0.34393,0.47725 0.35253,0.78896c0.0086,0.31171 -0.09427,0.57943 -0.30861,0.80316c-0.21434,0.22373 -0.47736,0.3399 -0.78907,0.3485c-0.31171,0.0086 -0.58073,-0.09289 -0.80708,-0.30447c-0.22635,-0.21158 -0.34382,-0.47322 -0.35242,-0.78493c-0.0086,-0.31171 0.09424,-0.58077 0.3085,-0.80719c0.21427,-0.22642 0.47725,-0.34393 0.78896,-0.35253z"
                    data-paper-data="{&quot;glyphName&quot;:&quot;i&quot;,&quot;glyphIndex&quot;:13,&quot;word&quot;:2,&quot;line&quot;:2}"
                    fill-rule="nonzero"></path>
                <path
                    d="M253.80139,318.0931v0l-0.14962,-7.51455l2.04005,-0.03255l0.01397,0.70147c0.87762,-0.75417 1.92142,-0.92686 3.1314,-0.51808c1.20998,0.40878 1.8858,1.33502 2.02747,2.7787l0.08862,4.45068l-2.03989,0.04062l-0.10146,-5.0957c-0.02001,-1.00516 -0.28856,-1.5967 -0.80564,-1.77461c-0.51708,-0.17791 -1.02808,-0.118 -1.533,0.17975c-0.50492,0.29774 -0.75315,0.65893 -0.7447,1.08357l0.1127,5.6601z"
                    data-paper-data="{&quot;glyphName&quot;:&quot;n&quot;,&quot;glyphIndex&quot;:14,&quot;word&quot;:2,&quot;line&quot;:2}"
                    fill-rule="nonzero"></path>
                <path
                    d="M265.88004,310.45842v0v0c-0.6935,0.00708 -1.32247,0.14792 -1.88689,0.42251c-0.56442,0.27459 -1.01367,0.63941 -1.34775,1.09445c-0.33408,0.45504 -0.49829,0.95943 -0.49263,1.51316c0.00659,0.64512 0.24229,1.218 0.70709,1.71865c0.46481,0.50065 1.06928,0.85739 1.81342,1.07023c-0.7364,0.01827 -1.30462,0.18403 -1.70467,0.49727c-0.40004,0.31324 -0.56569,0.6765 -0.49696,1.0898c0.08936,0.32706 0.29357,0.58036 0.61262,0.7599c0.36776,0.21131 0.76408,0.32286 1.18895,0.33465l2.91333,0.188c0.54885,0.04278 0.88742,0.1603 1.01574,0.35254c0.12831,0.19225 0.09423,0.409 -0.10223,0.65026c-0.19647,0.24126 -0.50748,0.45412 -0.93303,0.63859c-0.42555,0.18446 -0.90982,0.27946 -1.45279,0.28501c-0.2903,0.00296 -0.62966,-0.05943 -1.01808,-0.18719c-0.38842,-0.12776 -0.69706,-0.34101 -0.92592,-0.63976c-0.22887,-0.29875 -0.27865,-0.6988 -0.14936,-1.20014c-0.37632,0.00384 -0.66937,0.13318 -0.87914,0.38803c-0.20977,0.25484 -0.26592,0.54844 -0.16843,0.88079c0.09748,0.33235 0.41626,0.61674 0.95633,0.85317c0.54007,0.23643 1.37181,0.34084 2.49523,0.31324c0.59114,-0.02754 1.14906,-0.14884 1.67377,-0.36388c0.52471,-0.21504 0.95189,-0.50302 1.28155,-0.86393c0.32966,-0.36091 0.48942,-0.77519 0.47926,-1.24285c-0.01509,-0.42459 -0.19648,-0.81254 -0.54416,-1.16384c-0.34769,-0.3513 -0.88488,-0.56894 -1.61157,-0.65292l-2.72752,-0.15764c-0.27983,-0.02403 -0.41755,-0.08445 -0.41316,-0.18127c0.00395,-0.13983 0.11853,-0.23912 0.34375,-0.29788c0.22522,-0.05875 0.47218,-0.09354 0.7409,-0.10434c0.26872,-0.01081 0.47565,-0.01695 0.6208,-0.01844c0.03226,-0.00033 0.05645,-0.00058 0.07258,-0.00074c0.6935,-0.00708 1.32381,-0.14793 1.89092,-0.42255c0.56711,-0.27462 1.0177,-0.63945 1.35178,-1.09449c0.33408,-0.45504 0.49831,-0.95674 0.49271,-1.50509c-0.00681,-0.66662 -0.25477,-1.25551 -0.74388,-1.76667c-0.48911,-0.51115 -1.12178,-0.86492 -1.89801,-1.06131l-0.35547,-0.06089c0.33912,-0.48735 0.69654,-0.76252 1.07226,-0.8255c0.37572,-0.06298 0.69766,0.00497 0.96583,0.20385c0.26817,0.19888 0.40914,0.44611 0.42291,0.74168c0.28783,-0.24488 0.45037,-0.51806 0.48762,-0.81953c0.03725,-0.30147 -0.02067,-0.57642 -0.17375,-0.82487c-0.15308,-0.24845 -0.37793,-0.41686 -0.67454,-0.50523c-0.41494,-0.09254 -0.79749,-0.04024 -1.14764,0.15689c-0.35015,0.19713 -0.6606,0.4651 -0.93134,0.8039c-0.27074,0.3388 -0.49315,0.67307 -0.66721,1.00282c-0.04838,0.00049 -0.09946,0.00102 -0.15322,0.00156zM265.88375,310.8213v0c0.47846,-0.00489 0.88832,0.24766 1.22956,0.75764c0.34124,0.50998 0.51557,1.12784 0.52298,1.8536c0.00736,0.72038 -0.15434,1.33899 -0.4851,1.85583c-0.33076,0.51684 -0.73537,0.7777 -1.21383,0.78259c-0.47309,0.00483 -0.88025,-0.24774 -1.2215,-0.75772c-0.34124,-0.50998 -0.51554,-1.12516 -0.5229,-1.84554c-0.00741,-0.72576 0.15426,-1.34706 0.48502,-1.8639c0.33076,-0.51684 0.73268,-0.77767 1.20577,-0.78251z"
                    data-paper-data="{&quot;glyphName&quot;:&quot;g&quot;,&quot;glyphIndex&quot;:15,&quot;lastGlyphOfWord&quot;:true,&quot;word&quot;:2,&quot;line&quot;:2}"
                    fill-rule="nonzero"></path>
                <path
                    d="M280.61836,313.30246v0c0.51547,0.12107 0.95624,0.3869 1.32229,0.79749c0.36606,0.41059 0.57458,0.8714 0.62557,1.38243c0.01964,0.34419 -0.07615,0.65819 -0.28736,0.94199c-0.21122,0.2838 -0.52562,0.51059 -0.94321,0.68037c-0.41759,0.16978 -0.92207,0.25307 -1.51345,0.24986c-0.64514,-0.0035 -1.25594,-0.1439 -1.8324,-0.42122c-0.57646,-0.27732 -1.07857,-0.63219 -1.50633,-1.06462c-0.42776,-0.43243 -0.74516,-0.89383 -0.95218,-1.3842l-0.01136,2.09672c0.52506,0.33618 1.17805,0.6287 1.95896,0.87755c0.78091,0.24886 1.61759,0.3757 2.51004,0.38054c0.79568,0.00431 1.48325,-0.13309 2.06272,-0.41221c0.57947,-0.27912 1.03977,-0.64222 1.38091,-1.08929c0.34113,-0.44708 0.5521,-0.93249 0.63289,-1.45625c0.0808,-0.52376 0.02175,-1.03752 -0.17713,-1.54129c-0.19888,-0.50377 -0.54997,-0.94788 -1.05327,-1.33232c-0.50329,-0.38445 -1.16578,-0.65955 -1.98747,-0.82529l-1.83678,-0.35673c-0.5745,-0.1429 -1.0246,-0.42088 -1.35032,-0.83393c-0.32572,-0.41306 -0.47919,-0.86416 -0.46041,-1.3533c0.01878,-0.48915 0.25227,-0.91396 0.70046,-1.27443c0.44819,-0.36048 1.15625,-0.55691 2.12417,-0.5893c0.58066,-0.00223 1.1109,0.12161 1.59073,0.37152c0.47983,0.24991 0.76701,0.58212 0.86154,0.99661c0.04179,0.22603 0.02317,0.43695 -0.05585,0.63276c-0.07902,0.19581 -0.20482,0.34432 -0.37742,0.44554c0.54203,0.18036 0.98854,0.1317 1.3395,-0.14597c0.35097,-0.27767 0.48201,-0.64793 0.39312,-1.11078c-0.12661,-0.44692 -0.38282,-0.78971 -0.76862,-1.02836c-0.3858,-0.23865 -0.85399,-0.40517 -1.40455,-0.49955c-0.55057,-0.09438 -1.13231,-0.14055 -1.74522,-0.13849c-1.19901,0.01501 -2.15625,0.30955 -2.87173,0.88363c-0.71548,0.57408 -1.14797,1.26125 -1.29747,2.06152c-0.1495,0.80027 0.02654,1.55122 0.52811,2.25287c0.50157,0.70164 1.36724,1.18483 2.59699,1.44956z"
                    data-paper-data="{&quot;glyphName&quot;:&quot;S&quot;,&quot;glyphIndex&quot;:16,&quot;firstGlyphOfWord&quot;:true,&quot;word&quot;:2,&quot;line&quot;:2}"
                    fill-rule="nonzero"></path>
                <path
                    d="M286.45598,314.2501v0v0c0.01211,0.63465 0.14464,1.21597 0.3976,1.74396c0.25296,0.52799 0.64121,0.90609 1.16476,1.1343c0.48664,0.17927 0.979,0.24436 1.47709,0.19528c0.49809,-0.04908 0.91224,-0.14914 1.24247,-0.30018c-0.3489,0.32282 -0.74649,0.57502 -1.19277,0.7566c-0.44628,0.18158 -0.92477,0.26859 -1.43546,0.26102c-0.69346,-0.01027 -1.3226,-0.18896 -1.88741,-0.53607c-0.56481,-0.34711 -1.01232,-0.80808 -1.34255,-1.38292c-0.33023,-0.57484 -0.49021,-1.20899 -0.47993,-1.90245c0.01027,-0.69346 0.18896,-1.3226 0.53607,-1.88741c0.34711,-0.56481 0.80808,-1.01232 1.38292,-1.34255c0.57484,-0.33023 1.20899,-0.49021 1.90245,-0.47993c0.69346,0.01027 1.3226,0.18896 1.88741,0.53607c0.56481,0.34711 1.01232,0.80808 1.34255,1.38292c0.33023,0.57484 0.49021,1.20899 0.47993,1.90245zM289.87402,313.81681v0c-0.01246,-0.24752 -0.04595,-0.52761 -0.10047,-0.84028c-0.05451,-0.31267 -0.14275,-0.61777 -0.2647,-0.9153c-0.12195,-0.29753 -0.28764,-0.54598 -0.49707,-0.74534c-0.20943,-0.19936 -0.47811,-0.30147 -0.80603,-0.30632c-0.29566,-0.00438 -0.5511,0.08862 -0.7663,0.279c-0.21521,0.19038 -0.3922,0.43241 -0.53097,0.72608c-0.13877,0.29367 -0.24408,0.59725 -0.31594,0.91073c-0.07185,0.31348 -0.11499,0.59378 -0.1294,0.84091z"
                    data-paper-data="{&quot;glyphName&quot;:&quot;e&quot;,&quot;glyphIndex&quot;:17,&quot;word&quot;:2,&quot;line&quot;:2}"
                    fill-rule="nonzero"></path>
                <path
                    d="M292.72848,318.00877l2.03974,0.04761l0.08111,-3.47482c0.00617,-0.49461 0.11359,-1.06483 0.32226,-1.71067c0.20867,-0.64584 0.52845,-1.09817 0.95934,-1.357c0.44025,-0.19945 0.77649,-0.20505 1.00872,-0.01679c0.23223,0.18826 0.35826,0.4332 0.37811,0.73482c0.01985,0.30162 -0.07148,0.52804 -0.27399,0.67927c0.65184,0.18193 1.09293,0.06181 1.32327,-0.36034c0.23034,-0.42215 0.22351,-0.87808 -0.0205,-1.36777c-0.24401,-0.48969 -0.75032,-0.74351 -1.51891,-0.76145c-0.9146,0.01629 -1.62256,0.62628 -2.1239,1.82994l0.0399,-1.70919l-2.03974,-0.04761z"
                    data-paper-data="{&quot;glyphName&quot;:&quot;r&quot;,&quot;glyphIndex&quot;:18,&quot;word&quot;:2,&quot;line&quot;:2}"
                    fill-rule="nonzero"></path>
                <path
                    d="M299.9499,310.66392v0l2.74454,7.60668l0.62871,0.0199l3.22014,-7.41787l-0.62871,-0.0199l-2.12365,4.89488l-1.80981,-5.01939z"
                    data-paper-data="{&quot;glyphName&quot;:&quot;v&quot;,&quot;glyphIndex&quot;:19,&quot;word&quot;:2,&quot;line&quot;:2}"
                    fill-rule="nonzero"></path>
                <path
                    d="M307.97923,318.45416l2.0388,0.07815l0.28787,-7.51052l-2.0388,-0.07815l-0.28787,7.51052v0zM309.32449,307.57041c0.3116,0.01194 0.5733,0.13227 0.78513,0.36098c0.21182,0.22871 0.31176,0.49886 0.29982,0.81046c-0.01194,0.3116 -0.13222,0.57196 -0.36082,0.7811c-0.22861,0.20914 -0.49871,0.30773 -0.8103,0.29579c-0.3116,-0.01194 -0.57336,-0.13093 -0.78528,-0.35695c-0.21193,-0.22602 -0.31192,-0.49483 -0.29997,-0.80643c0.01194,-0.3116 0.13227,-0.5733 0.36098,-0.78513c0.22871,-0.21182 0.49886,-0.31176 0.81046,-0.29982z"
                    data-paper-data="{&quot;glyphName&quot;:&quot;i&quot;,&quot;glyphIndex&quot;:20,&quot;word&quot;:2,&quot;line&quot;:2}"
                    fill-rule="nonzero"></path>
                <path
                    d="M315.81439,311.3672v0c-0.73878,-0.08692 -1.42525,0.01014 -2.05943,0.29117c-0.63417,0.28103 -1.1537,0.70578 -1.55858,1.27424c-0.40488,0.56846 -0.62428,1.23134 -0.65821,1.98863c-0.03104,0.69284 0.10986,1.3315 0.42272,1.91598c0.31286,0.58447 0.74636,1.05865 1.30052,1.42252c0.55415,0.36387 1.17765,0.56133 1.8705,0.59238c0.50486,0.02262 0.9844,-0.05007 1.4386,-0.21808c0.45421,-0.16801 0.86052,-0.40812 1.21893,-0.72035c-0.33997,0.14084 -0.75963,0.22832 -1.25896,0.26246c-0.49933,0.03413 -0.98684,-0.04556 -1.46252,-0.23909c-0.53211,-0.25525 -0.91742,-0.66403 -1.15593,-1.22634c-0.23851,-0.56231 -0.34577,-1.17121 -0.32178,-1.8267c0.00249,-0.29588 0.03148,-0.5825 0.08696,-0.85986c0.07248,-0.41652 0.21478,-0.82992 0.4269,-1.24018c0.26703,-0.43471 0.60168,-0.69688 1.00394,-0.78649c0.40226,-0.08961 0.77111,-0.03407 1.10654,0.16663c0.33543,0.2007 0.54198,0.51536 0.61965,0.94399c0.02749,0.22726 -0.0021,0.43717 -0.08876,0.62971c-0.08666,0.19255 -0.21809,0.33331 -0.39429,0.42229c0.3487,0.14478 0.66657,0.1671 0.95359,0.06694c0.28703,-0.10015 0.50748,-0.27594 0.66136,-0.52737c0.15388,-0.25143 0.19984,-0.52652 0.13788,-0.82529c-0.12825,-0.50086 -0.41606,-0.86356 -0.86344,-1.08811c-0.44738,-0.22455 -0.92278,-0.36425 -1.4262,-0.41909z"
                    data-paper-data="{&quot;glyphName&quot;:&quot;c&quot;,&quot;glyphIndex&quot;:21,&quot;word&quot;:2,&quot;line&quot;:2}"
                    fill-rule="nonzero"></path>
                <path
                    d="M320.52662,315.3429v0v0c-0.01224,0.63465 0.09791,1.22062 0.33044,1.75792c0.23253,0.5373 0.606,0.93001 1.12042,1.17812c0.47941,0.19779 0.96891,0.28172 1.46852,0.25177c0.4996,-0.02995 0.91729,-0.11405 1.25307,-0.25232c-0.36102,0.30921 -0.76799,0.54598 -1.22091,0.71031c-0.45292,0.16434 -0.93438,0.23293 -1.44441,0.20579c-0.69256,-0.03685 -1.31438,-0.23953 -1.86546,-0.60804c-0.55108,-0.36851 -0.9806,-0.8463 -1.28854,-1.43338c-0.30794,-0.58708 -0.44349,-1.2269 -0.40664,-1.91946c0.03685,-0.69256 0.23953,-1.31438 0.60804,-1.86546c0.36851,-0.55108 0.8463,-0.9806 1.43338,-1.28854c0.58708,-0.30794 1.2269,-0.44349 1.91946,-0.40664c0.69256,0.03685 1.31438,0.23953 1.86546,0.60804c0.55108,0.36851 0.9806,0.8463 1.28854,1.43338c0.30794,0.58708 0.44349,1.2269 0.40664,1.91946zM323.95876,315.04098v0c-0.00296,-0.24782 -0.02569,-0.52899 -0.06818,-0.84351c-0.04249,-0.31453 -0.11895,-0.62278 -0.22941,-0.92478c-0.11045,-0.30199 -0.2665,-0.55661 -0.46813,-0.76385c-0.20164,-0.20724 -0.4662,-0.31958 -0.79369,-0.337c-0.29528,-0.01571 -0.55409,0.06743 -0.77644,0.24941c-0.22235,0.18199 -0.40849,0.41705 -0.55842,0.70519c-0.14993,0.28814 -0.2668,0.58745 -0.35063,0.89795c-0.08382,0.3105 -0.13767,0.58894 -0.16155,0.83533z"
                    data-paper-data="{&quot;glyphName&quot;:&quot;e&quot;,&quot;glyphIndex&quot;:22,&quot;word&quot;:2,&quot;line&quot;:2}"
                    fill-rule="nonzero"></path>
                <path
                    d="M326.5024,313.92648v0c-0.05993,0.88508 0.2371,1.52821 0.89107,1.9294c0.65397,0.40119 1.37578,0.70692 2.1654,0.91717c0.53974,0.15715 0.9938,0.32787 1.36219,0.51216c0.36839,0.18429 0.55104,0.43256 0.54796,0.74478c-0.07882,0.75464 -0.77087,1.10251 -2.07616,1.04362c-0.68017,-0.06346 -1.28605,-0.30548 -1.81763,-0.72606c-0.53158,-0.42058 -0.88614,-0.8949 -1.06368,-1.42294l-0.10416,1.69032c0.34002,0.33875 0.78233,0.5909 1.32694,0.75642c0.54461,0.16553 1.07717,0.26433 1.59768,0.2964c1.05176,0.06481 1.88063,-0.09957 2.48662,-0.49315c0.60599,-0.39358 0.95079,-0.91906 1.03439,-1.57644c0.06529,-0.88474 -0.22645,-1.52621 -0.87522,-1.92439c-0.64877,-0.39818 -1.36814,-0.69971 -2.1581,-0.9046c-0.54543,-0.15211 -1.00495,-0.32182 -1.37854,-0.50913c-0.37359,-0.18731 -0.55567,-0.44496 -0.54623,-0.77295c0.07368,-0.4964 0.34187,-0.80576 0.80456,-0.92807c0.46269,-0.12231 0.90802,-0.15951 1.33599,-0.11159c0.62015,0.07592 1.04984,0.27073 1.28906,0.58442c0.23922,0.31369 0.32963,0.63841 0.27124,0.97416c-0.05839,0.33575 -0.22134,0.57618 -0.48883,0.72129c0.53106,0.21048 0.97664,0.16926 1.33673,-0.12366c0.36009,-0.29292 0.50606,-0.6731 0.43791,-1.14053c-0.15747,-0.59144 -0.51884,-0.99884 -1.08412,-1.2222c-0.56528,-0.22336 -1.12176,-0.34922 -1.66943,-0.37758c-0.78683,-0.0808 -1.55028,0.02701 -2.29033,0.32345c-0.74005,0.29644 -1.18516,0.87633 -1.33532,1.73969z"
                    data-paper-data="{&quot;glyphName&quot;:&quot;s&quot;,&quot;glyphIndex&quot;:23,&quot;lastGlyphOfWord&quot;:true,&quot;word&quot;:2,&quot;line&quot;:2,&quot;lastGlyphOfSecondLine&quot;:true}"
                    fill-rule="nonzero"></path>
                <path
                    d="M65.66729,321.24393l38.91572,25.55069c0.16193,0.10625 0.33794,0.17791 0.52804,0.21497c0.1901,0.03706 0.38015,0.03706 0.57017,0c112.87563,-22.32653 225.75493,-22.32653 338.63789,0c0.19026,0.03706 0.38011,0.03706 0.56955,0c0.19026,-0.03706 0.36652,-0.10872 0.52878,-0.21497l38.91597,-25.55069c0.16308,-0.10707 0.29981,-0.24174 0.41018,-0.404c0.11037,-0.16226 0.18532,-0.33934 0.22485,-0.53125c0.04036,-0.19191 0.04201,-0.38423 0.00494,-0.57696c-0.03624,-0.19273 -0.10831,-0.37105 -0.21621,-0.53496l-26.02264,-39.63501c-0.05354,-0.08154 -0.1149,-0.15732 -0.18408,-0.22733c-0.06919,-0.07001 -0.14455,-0.13219 -0.22609,-0.18656c-0.08154,-0.05518 -0.16761,-0.10172 -0.25821,-0.13961c-0.0906,-0.03706 -0.18408,-0.06548 -0.28045,-0.08525c-121.85904,-24.10198 -243.7161,-24.10198 -365.57119,0c-0.09628,0.01977 -0.18981,0.04818 -0.28057,0.08525c-0.09068,0.03789 -0.17675,0.08442 -0.25821,0.13961c-0.08146,0.05436 -0.1567,0.11655 -0.22572,0.18656c-0.06902,0.07001 -0.13051,0.14579 -0.18446,0.22733l-26.02264,39.63501c-0.10765,0.16391 -0.1798,0.34222 -0.21645,0.53496c-0.03673,0.19273 -0.03521,0.38505 0.00457,0.57696c0.03986,0.19191 0.1149,0.36899 0.2251,0.53125c0.1102,0.16226 0.24726,0.29692 0.41116,0.404zM105.70074,343.99134l-37.17495,-24.40665l24.87081,-37.88065c121.07197,-23.86609 242.14088,-23.86609 363.20676,0l24.87118,37.88065l-37.1752,24.40665c-112.86319,-22.24499 -225.7294,-22.24499 -338.5986,0z"
                    fill-rule="evenodd"></path>
            </g>
        </g>
    </g>
</svg>